<svg xmlns="http://www.w3.org/2000/svg" xmlns:xlink="http://www.w3.org/1999/xlink" viewBox="0 0 180 177"><defs><style>.cls-1{fill:none;}.cls-2{fill:#7d745c;}.cls-3{fill:#eeebe9;}.cls-4{clip-path:url(#clip-path);}.cls-5{fill:#332f25;}.cls-6{fill:#ecd573;}.cls-7{fill:#8dae83;}</style><clipPath id="clip-path"><circle class="cls-1" cx="90" cy="88.5" r="67"/></clipPath></defs><title>get-involvedplant</title><g id="outer_circle" data-name="outer circle"><polygon class="cls-2" points="90 2 98.3 9.56 107.98 3.89 114.53 13.01 125.18 9.48 129.69 19.76 140.84 18.52 143.11 29.51 154.28 30.62 154.22 41.84 164.91 45.25 162.51 56.22 172.27 61.77 167.64 72 176.03 79.46 169.38 88.5 176.03 97.54 167.64 105 172.27 115.23 162.51 120.78 164.91 131.75 154.22 135.16 154.28 146.38 143.11 147.49 140.84 158.48 129.69 157.24 125.18 167.52 114.53 163.99 107.98 173.11 98.3 167.44 90 175 81.7 167.44 72.02 173.11 65.47 163.99 54.82 167.52 50.31 157.24 39.16 158.48 36.89 147.49 25.72 146.38 25.78 135.16 15.09 131.75 17.49 120.78 7.73 115.23 12.36 105 3.97 97.54 10.62 88.5 3.97 79.46 12.36 72 7.73 61.77 17.49 56.22 15.09 45.25 25.78 41.84 25.72 30.62 36.89 29.51 39.16 18.52 50.31 19.76 54.82 9.48 65.47 13.01 72.02 3.89 81.7 9.56 90 2"/><path class="cls-3" d="M90,158.47a70,70,0,1,1,70-70A70.05,70.05,0,0,1,90,158.47Z"/><path class="cls-2" d="M90,21.53a67,67,0,1,1-67,67,67,67,0,0,1,67-67m0-6a73,73,0,1,0,73,73,73,73,0,0,0-73-73Z"/><path class="cls-3" d="M90,18.53a70,70,0,1,1-70,70,70.05,70.05,0,0,1,70-70m0-3a73,73,0,1,0,73,73,73,73,0,0,0-73-73Z"/></g><g id="inner_circle" data-name="inner circle"><g class="cls-4"><rect class="cls-5" x="113.26" y="69.74" width="5.34" height="22.88" rx="2.67" ry="2.67"/><rect class="cls-5" x="119.18" y="66.5" width="5.34" height="25.46" rx="2.67" ry="2.67"/><rect class="cls-5" x="125.09" y="68.09" width="5.34" height="23.87" rx="2.67" ry="2.67"/><rect class="cls-5" x="131" y="74.51" width="5.34" height="16.24" rx="2.67" ry="2.67"/><rect class="cls-5" x="113.27" y="87.28" width="18.12" height="20.1"/><path class="cls-5" d="M136.34,88.08l-.1,4.64s-.29,8.77-4.86,14.87l-1-18.3Z"/><path class="cls-5" d="M112.58,107.5s-8.86-16.7-9-17.73.84-1.5,2.15-1.7,4.23.87,5.73,4.09a23.76,23.76,0,0,0,3.65,5.53,8.18,8.18,0,0,1,6,1.93c2.61,2.38,1.31,6.87,1.31,6.87Z"/><path class="cls-5" d="M112.58,107.5s-8.86-16.7-9-17.73.84-1.5,2.15-1.7,4.23.87,5.73,4.09a23.76,23.76,0,0,0,3.65,5.53,8.18,8.18,0,0,1,6,1.93c2.61,2.38,1.31,6.87,1.31,6.87Z"/><polygon class="cls-5" points="132.59 165.67 113.29 165.67 114.55 106.92 131.33 106.92 132.59 165.67"/><path class="cls-3" d="M104.78,97.72s9.65,5.26,9.72,10.35l-4,2.23Z"/><rect class="cls-6" x="80.6" y="50.74" width="5.34" height="22.88" rx="2.67" ry="2.67"/><rect class="cls-6" x="86.51" y="47.5" width="5.34" height="25.46" rx="2.67" ry="2.67"/><rect class="cls-6" x="92.42" y="49.09" width="5.34" height="23.87" rx="2.67" ry="2.67"/><rect class="cls-6" x="98.33" y="55.51" width="5.34" height="16.24" rx="2.67" ry="2.67"/><rect class="cls-6" x="80.61" y="68.28" width="18.12" height="20.1"/><path class="cls-6" d="M103.67,69.08l-.1,4.64s-.29,8.77-4.86,14.87l-1-18.3Z"/><path class="cls-6" d="M79.92,88.5s-8.86-16.7-9-17.73.84-1.5,2.15-1.7,4.23.87,5.73,4.09a23.76,23.76,0,0,0,3.65,5.53,8.18,8.18,0,0,1,6,1.93c2.61,2.38,1.31,6.87,1.31,6.87Z"/><path class="cls-6" d="M79.92,88.5s-8.86-16.7-9-17.73.84-1.5,2.15-1.7,4.23.87,5.73,4.09a23.76,23.76,0,0,0,3.65,5.53,8.18,8.18,0,0,1,6,1.93c2.61,2.38,1.31,6.87,1.31,6.87Z"/><polygon class="cls-6" points="99.93 164.67 80.62 164.67 81.88 87.92 98.67 87.92 99.93 164.67"/><path class="cls-3" d="M72.11,78.72S81.77,84,81.84,89.07l-4,2.23Z"/><rect class="cls-7" x="46.26" y="70.08" width="5.34" height="22.88" rx="2.67" ry="2.67"/><rect class="cls-7" x="52.18" y="66.83" width="5.34" height="25.46" rx="2.67" ry="2.67"/><rect class="cls-7" x="58.09" y="68.43" width="5.34" height="23.87" rx="2.67" ry="2.67"/><rect class="cls-7" x="64" y="74.84" width="5.34" height="16.24" rx="2.67" ry="2.67"/><rect class="cls-7" x="46.27" y="87.62" width="18.12" height="20.1"/><path class="cls-7" d="M69.34,88.41l-.1,4.64s-.29,8.77-4.86,14.87l-1-18.3Z"/><path class="cls-7" d="M45.58,107.83s-8.86-16.7-9-17.73.84-1.5,2.15-1.7,4.23.87,5.73,4.09A23.76,23.76,0,0,0,48.16,98a8.18,8.18,0,0,1,6,1.93c2.61,2.38,1.31,6.87,1.31,6.87Z"/><path class="cls-7" d="M45.58,107.83s-8.86-16.7-9-17.73.84-1.5,2.15-1.7,4.23.87,5.73,4.09A23.76,23.76,0,0,0,48.16,98a8.18,8.18,0,0,1,6,1.93c2.61,2.38,1.31,6.87,1.31,6.87Z"/><polygon class="cls-7" points="65.59 166 46.29 166 47.55 107.26 64.33 107.26 65.59 166"/><path class="cls-3" d="M37.78,98.06s9.65,5.26,9.72,10.35l-4,2.23Z"/></g></g></svg>