<svg id="outer_circle" data-name="outer circle" xmlns="http://www.w3.org/2000/svg" viewBox="0 0 180 177"><defs><style>.cls-1{fill:#7d745c;}.cls-2{fill:#eeebe9;}.cls-3{fill:#8dae83;}.cls-4{fill:#ecd573;}.cls-5{fill:#5b7c51;}</style></defs><title>get-involvedplant</title><polygon class="cls-1" points="90 2 98.3 9.56 107.98 3.89 114.53 13.01 125.18 9.48 129.69 19.76 140.84 18.52 143.11 29.51 154.28 30.62 154.22 41.84 164.91 45.25 162.51 56.22 172.27 61.77 167.64 72 176.03 79.46 169.38 88.5 176.03 97.54 167.64 105 172.27 115.23 162.51 120.78 164.91 131.75 154.22 135.16 154.28 146.38 143.11 147.49 140.84 158.48 129.69 157.24 125.18 167.52 114.53 163.99 107.98 173.11 98.3 167.44 90 175 81.7 167.44 72.02 173.11 65.47 163.99 54.82 167.52 50.31 157.24 39.16 158.48 36.89 147.49 25.72 146.38 25.78 135.16 15.09 131.75 17.49 120.78 7.73 115.23 12.36 105 3.97 97.54 10.62 88.5 3.97 79.46 12.36 72 7.73 61.77 17.49 56.22 15.09 45.25 25.78 41.84 25.72 30.62 36.89 29.51 39.16 18.52 50.31 19.76 54.82 9.48 65.47 13.01 72.02 3.89 81.7 9.56 90 2"/><path class="cls-2" d="M90,158.47a70,70,0,1,1,70-70A70.05,70.05,0,0,1,90,158.47Z"/><path class="cls-1" d="M90,21.53a67,67,0,1,1-67,67,67,67,0,0,1,67-67m0-6a73,73,0,1,0,73,73,73,73,0,0,0-73-73Z"/><path class="cls-2" d="M90,18.53a70,70,0,1,1-70,70,70.05,70.05,0,0,1,70-70m0-3a73,73,0,1,0,73,73,73,73,0,0,0-73-73Z"/><polygon class="cls-1" points="90 2 98.3 9.56 107.98 3.89 114.53 13.01 125.18 9.48 129.69 19.76 140.84 18.52 143.11 29.51 154.28 30.62 154.22 41.84 164.91 45.25 162.51 56.22 172.27 61.77 167.64 72 176.03 79.46 169.38 88.5 176.03 97.54 167.64 105 172.27 115.23 162.51 120.78 164.91 131.75 154.22 135.16 154.28 146.38 143.11 147.49 140.84 158.48 129.69 157.24 125.18 167.52 114.53 163.99 107.98 173.11 98.3 167.44 90 175 81.7 167.44 72.02 173.11 65.47 163.99 54.82 167.52 50.31 157.24 39.16 158.48 36.89 147.49 25.72 146.38 25.78 135.16 15.09 131.75 17.49 120.78 7.73 115.23 12.36 105 3.97 97.54 10.62 88.5 3.97 79.46 12.36 72 7.73 61.77 17.49 56.22 15.09 45.25 25.78 41.84 25.72 30.62 36.89 29.51 39.16 18.52 50.31 19.76 54.82 9.48 65.47 13.01 72.02 3.89 81.7 9.56 90 2"/><path class="cls-2" d="M90,158.47a70,70,0,1,1,70-70A70.05,70.05,0,0,1,90,158.47Z"/><path class="cls-1" d="M90,21.53a67,67,0,1,1-67,67,67,67,0,0,1,67-67m0-6a73,73,0,1,0,73,73,73,73,0,0,0-73-73Z"/><path class="cls-2" d="M90,18.53a70,70,0,1,1-70,70,70.05,70.05,0,0,1,70-70m0-3a73,73,0,1,0,73,73,73,73,0,0,0-73-73Z"/><path class="cls-3" d="M71,91.53A2.79,2.79,0,0,0,67.41,93l-3.66,8.83-.34-.32L65.8,84.73a2.78,2.78,0,0,0-5.51-.78L58.12,99.3l-.79-.11L55.91,80.45a2.79,2.79,0,0,0-3-2.56h0a2.79,2.79,0,0,0-2.56,3l1.38,18.39-.76.1L47.82,88.14a2.78,2.78,0,0,0-5.35,1.51l4.85,17.14a10,10,0,0,1,1.07-.06,7.87,7.87,0,0,1,5.35,1.88,6.21,6.21,0,0,1,1.32,1.87l-.46.25A5.73,5.73,0,0,0,53.38,109a7.37,7.37,0,0,0-5-1.75c-.35,0-.67,0-.92,0v0a7.17,7.17,0,0,0-.76.08s-.33.36-1.89-3-3.92-4.18-5.29-4-2.35.7-2.24,1.77c.06.59,3.6,8.28,4.94,9.92s5.47,3,6.72,7.61c.16,1.34,1.2,10.54,1.59,22.89a66.89,66.89,0,0,0,13,7.45c-.36-15.3.29-28.31.45-31.18a15.09,15.09,0,0,0,4.09-10l.07-3.27,4.34-10.48A2.79,2.79,0,0,0,71,91.53Z"/><path class="cls-4" d="M103.34,53a2.79,2.79,0,0,0-3.63,1.5L96,63.31,95.71,63,98.1,46.19a2.78,2.78,0,0,0-5.51-.78L90.41,60.75l-.79-.11L88.21,41.91a2.79,2.79,0,0,0-3-2.56h0a2.79,2.79,0,0,0-2.56,3L84,60.72l-.76.1L80.11,49.59a2.78,2.78,0,0,0-5.35,1.51l4.85,17.14a10,10,0,0,1,1.07-.06A7.87,7.87,0,0,1,86,70.07a6.21,6.21,0,0,1,1.32,1.87l-.46.25a5.73,5.73,0,0,0-1.21-1.74,7.37,7.37,0,0,0-5-1.75c-.35,0-.67,0-.92,0v0a7.17,7.17,0,0,0-.76.08s-.33.36-1.89-3-3.92-4.18-5.29-4-2.35.7-2.24,1.77c.06.59,3.6,8.28,4.94,9.92s5.47,3,6.72,7.61c.35,3,5,44.25-2.52,73.34a66.59,66.59,0,0,0,22.18.06C93.85,130,96,86,96.34,80.36a15.09,15.09,0,0,0,4.09-10l.07-3.27,4.34-10.48A2.79,2.79,0,0,0,103.34,53Z"/><path class="cls-5" d="M132.21,140.52c-.76-18,.06-34.32.24-37.59a15.09,15.09,0,0,0,4.09-10l.07-3.27L141,79.19a2.78,2.78,0,1,0-5.14-2.13l-3.66,8.83-.34-.32,2.38-16.81a2.78,2.78,0,0,0-5.51-.78l-2.18,15.35-.79-.11-1.41-18.74a2.79,2.79,0,0,0-3-2.56h0a2.79,2.79,0,0,0-2.56,3l1.38,18.39-.76.1-3.18-11.22a2.78,2.78,0,0,0-5.35,1.51l4.85,17.14a10,10,0,0,1,1.07-.06,7.87,7.87,0,0,1,5.35,1.88,6.21,6.21,0,0,1,1.32,1.87l-.46.25A5.73,5.73,0,0,0,121.8,93a7.37,7.37,0,0,0-5-1.75c-.35,0-.67,0-.92,0v0a7.17,7.17,0,0,0-.76.08s-.33.36-1.89-3-3.92-4.18-5.29-4-2.35.7-2.24,1.77c.06.59,3.6,8.28,4.94,9.92s5.47,3,6.72,7.61a294.92,294.92,0,0,1,1.4,45.25A67,67,0,0,0,132.21,140.52Z"/></svg>