<svg xmlns="http://www.w3.org/2000/svg" class="hide"><symbol id="facebook" viewBox="0 0 24 24"><path d="M20 3H4c-.6 0-1 .4-1 1v16c0 .5.4 1 1 1h8.6v-7h-2.3v-2.7h2.3v-2c0-2.3 1.4-3.6 3.5-3.6 1 0 1.8.1 2.1.1v2.4h-1.4c-1.1 0-1.3.5-1.3 1.3v1.7h2.7l-.4 2.8h-2.3v7H20c.5 0 1-.4 1-1V4c0-.6-.4-1-1-1z"/></symbol><symbol id="instagram" viewBox="0 0 24 24"><path d="M18.9 10.6h-1.6c.1.4.2.9.2 1.4 0 3.1-2.5 5.5-5.5 5.5-3.1 0-5.5-2.5-5.5-5.5 0-.5.1-.9.2-1.4H5.1v7.6c0 .4.3.7.7.7h12.5c.4 0 .7-.3.7-.7l-.1-7.6zm0-4.8c0-.4-.3-.7-.7-.7h-2.1c-.4 0-.7.3-.7.7v2.1c0 .4.3.7.7.7h2.1c.4 0 .7-.3.7-.7V5.8zM12 8.5c-1.9 0-3.5 1.6-3.5 3.5s1.6 3.5 3.5 3.5 3.5-1.6 3.5-3.5-1.6-3.5-3.5-3.5M18.9 21H5.1C3.9 21 3 20.1 3 18.9V5.1C3 3.9 3.9 3 5.1 3h13.8c1.2 0 2.1.9 2.1 2.1v13.8c0 1.2-.9 2.1-2.1 2.1"/></symbol><symbol id="more" viewBox="0 0 31 8"><title>Group</title><g fill-rule="evenodd"><ellipse cx="3.937" cy="3.9" rx="3.937" ry="3.9"/><ellipse cx="15.07" cy="3.9" rx="3.937" ry="3.9"/><ellipse cx="26.203" cy="3.9" rx="3.937" ry="3.9"/></g></symbol><symbol id="twitter-alt" viewBox="0 0 24 24"><path d="M22.2 5.9c-.7.3-1.5.5-2.4.6.8-.5 1.5-1.3 1.8-2.3-.8.5-1.7.8-2.6 1-.7-.8-1.8-1.3-3-1.3-2.2.1-4 1.9-4 4.2 0 .3 0 .6.1.9-3.4-.1-6.5-1.8-8.5-4.2-.3.6-.5 1.3-.5 2 0 1.4.7 2.7 1.8 3.4-.7 0-1.3-.2-1.9-.5v.1c0 2 1.4 3.6 3.3 4-.3.1-.7.1-1.1.1-.3 0-.5 0-.8-.1.5 1.6 2 2.8 3.8 2.8-1.4 1.1-3.2 1.8-5.1 1.8-.3 0-.7 0-1-.1 1.8 1.2 4 1.8 6.3 1.8 7.5 0 11.7-6.3 11.7-11.7v-.5c.9-.4 1.6-1.1 2.1-2z"/></symbol><symbol id="twitter" viewBox="0 0 24 24"><path d="M19 3H5c-1.1 0-2 .9-2 2v14c0 1.1.9 2 2 2h14c1.1 0 2-.9 2-2V5c0-1.1-.9-2-2-2zm-2.5 6.7v.3c0 3-2.3 6.6-6.6 6.6-1.3 0-2.5-.4-3.5-1H7c1.1 0 2.1-.4 2.9-1-1 0-1.9-.7-2.2-1.6h.4c.2 0 .4 0 .6-.1-1.1-.2-1.8-1.1-1.8-2.3.3.2.7.3 1 .3-.6-.4-1-1.1-1-1.9 0-.4.1-.8.3-1.2 1.1 1.4 2.8 2.3 4.8 2.4 0-.2-.1-.3-.1-.5 0-1.3 1-2.3 2.3-2.3.7 0 1.3.3 1.7.7.5-.1 1-.3 1.5-.6-.2.5-.5 1-1 1.3.5-.1.9-.2 1.3-.4-.4.6-.8 1-1.2 1.3z"/></symbol><symbol id="youtube" viewBox="0 0 24 24"><path d="M21.8 8s-.2-1.4-.8-2c-.8-.8-1.6-.8-2-.8-2.8-.2-7-.2-7-.2s-4.2 0-7 .2c-.4 0-1.2 0-2 .8-.6.6-.8 2-.8 2S2 9.6 2 11.2v1.5c0 1.7.2 3.3.2 3.3s.2 1.4.8 2c.8.8 1.8.8 2.2.9 1.6.1 6.8.1 6.8.1s4.2 0 7-.2c.4 0 1.2 0 2-.8.6-.6.8-2 .8-2s.2-1.6.2-3.2v-1.5c0-1.7-.2-3.3-.2-3.3zM9.9 14.6V9l5.4 2.8-5.4 2.8z"/></symbol></svg>