<svg xmlns="http://www.w3.org/2000/svg" class="hide"><defs><style>.cls-1{fill:#7d745e}</style></defs><symbol id="caret" viewBox="0 0 32 32"><title>arrow</title><path d="M16 25.2L.8 10l2.1-2.1L16 21 29.1 7.9l2.1 2.1z"/></symbol><symbol id="facebook" viewBox="0 0 24 24"><path d="M20 3H4c-.6 0-1 .4-1 1v16c0 .5.4 1 1 1h8.6v-7h-2.3v-2.7h2.3v-2c0-2.3 1.4-3.6 3.5-3.6 1 0 1.8.1 2.1.1v2.4h-1.4c-1.1 0-1.3.5-1.3 1.3v1.7h2.7l-.4 2.8h-2.3v7H20c.5 0 1-.4 1-1V4c0-.6-.4-1-1-1z"/></symbol><symbol id="fleuron" viewBox="0 0 65.86 22.32"><title>get-involvedfleuron</title><path class="cls-1" d="M48.58 2.06c10 0 17.28 5 17.28 10.37a5.21 5.21 0 0 1-5.18 5.28c-1.59 0-2.68-.71-2.68-.91a.21.21 0 0 1 .19-.19 4.65 4.65 0 0 0 1.54.29 3.64 3.64 0 0 0 3.6-4c0-4.75-6.62-9.6-15.65-9.6-14 0-20.16 7-32.79 7C3.84 10.27 0 1.73 0 .38A.38.38 0 0 1 .38 0c.29 0 .44.29.62.53C1.92 2.4 5.28 7 15.79 7 27 7 37.06 2.06 48.58 2.06zM22.37 13a.82.82 0 1 1 .82-.82.84.84 0 0 1-.82.82zm3.84-.62a1 1 0 1 1 1-1 1 1 0 0 1-1 .96zm4.66-.82a1.25 1.25 0 1 1 1.25-1.25 1.27 1.27 0 0 1-1.25 1.21zm27.75 1.87a.33.33 0 0 1-.34.34c-.14 0-.24-.1-.43-.34C57.37 12.77 54.29 9 47 9c-7 0-11.14 2.5-11.14 6.62 0 3.17 2.26 4.8 5.38 4.8A6.67 6.67 0 0 0 46 18.19c.24-.24.29-.29.43-.29a.27.27 0 0 1 .24.29c0 .91-2.4 4.13-6.86 4.13-3.07 0-6.67-1.92-6.67-6.48 0-5.28 5.86-8.16 12.67-8.16 9.01 0 12.8 5.23 12.8 5.71z"/></symbol><symbol id="instagram" viewBox="0 0 24 24"><path d="M18.9 10.6h-1.6c.1.4.2.9.2 1.4 0 3.1-2.5 5.5-5.5 5.5-3.1 0-5.5-2.5-5.5-5.5 0-.5.1-.9.2-1.4H5.1v7.6c0 .4.3.7.7.7h12.5c.4 0 .7-.3.7-.7l-.1-7.6zm0-4.8c0-.4-.3-.7-.7-.7h-2.1c-.4 0-.7.3-.7.7v2.1c0 .4.3.7.7.7h2.1c.4 0 .7-.3.7-.7V5.8zM12 8.5c-1.9 0-3.5 1.6-3.5 3.5s1.6 3.5 3.5 3.5 3.5-1.6 3.5-3.5-1.6-3.5-3.5-3.5M18.9 21H5.1C3.9 21 3 20.1 3 18.9V5.1C3 3.9 3.9 3 5.1 3h13.8c1.2 0 2.1.9 2.1 2.1v13.8c0 1.2-.9 2.1-2.1 2.1"/></symbol><symbol id="more" viewBox="0 0 31 8"><title>Group</title><g fill-rule="evenodd"><ellipse cx="3.937" cy="3.9" rx="3.937" ry="3.9"/><ellipse cx="15.07" cy="3.9" rx="3.937" ry="3.9"/><ellipse cx="26.203" cy="3.9" rx="3.937" ry="3.9"/></g></symbol><symbol id="search" viewBox="0 0 500 500"><title>Shape</title><path d="M107.143 196.429C107.143 87.944 195.087 0 303.57 0 412.056 0 500 87.944 500 196.429c0 108.484-87.944 196.428-196.429 196.428-35.91 0-69.57-9.636-98.535-26.465L71.43 500C31.979 500 0 468.02 0 428.571l133.608-133.607c-16.829-28.965-26.465-62.625-26.465-98.535zm321.428 0c0-69.036-55.964-125-125-125-69.035 0-125 55.964-125 125 0 69.035 55.965 125 125 125 69.036 0 125-55.965 125-125z" fill-rule="evenodd"/></symbol><symbol id="twitter-alt" viewBox="0 0 24 24"><path d="M22.2 5.9c-.7.3-1.5.5-2.4.6.8-.5 1.5-1.3 1.8-2.3-.8.5-1.7.8-2.6 1-.7-.8-1.8-1.3-3-1.3-2.2.1-4 1.9-4 4.2 0 .3 0 .6.1.9-3.4-.1-6.5-1.8-8.5-4.2-.3.6-.5 1.3-.5 2 0 1.4.7 2.7 1.8 3.4-.7 0-1.3-.2-1.9-.5v.1c0 2 1.4 3.6 3.3 4-.3.1-.7.1-1.1.1-.3 0-.5 0-.8-.1.5 1.6 2 2.8 3.8 2.8-1.4 1.1-3.2 1.8-5.1 1.8-.3 0-.7 0-1-.1 1.8 1.2 4 1.8 6.3 1.8 7.5 0 11.7-6.3 11.7-11.7v-.5c.9-.4 1.6-1.1 2.1-2z"/></symbol><symbol id="twitter" viewBox="0 0 24 24"><path d="M19 3H5c-1.1 0-2 .9-2 2v14c0 1.1.9 2 2 2h14c1.1 0 2-.9 2-2V5c0-1.1-.9-2-2-2zm-2.5 6.7v.3c0 3-2.3 6.6-6.6 6.6-1.3 0-2.5-.4-3.5-1H7c1.1 0 2.1-.4 2.9-1-1 0-1.9-.7-2.2-1.6h.4c.2 0 .4 0 .6-.1-1.1-.2-1.8-1.1-1.8-2.3.3.2.7.3 1 .3-.6-.4-1-1.1-1-1.9 0-.4.1-.8.3-1.2 1.1 1.4 2.8 2.3 4.8 2.4 0-.2-.1-.3-.1-.5 0-1.3 1-2.3 2.3-2.3.7 0 1.3.3 1.7.7.5-.1 1-.3 1.5-.6-.2.5-.5 1-1 1.3.5-.1.9-.2 1.3-.4-.4.6-.8 1-1.2 1.3z"/></symbol><symbol id="youtube" viewBox="0 0 24 24"><path d="M21.8 8s-.2-1.4-.8-2c-.8-.8-1.6-.8-2-.8-2.8-.2-7-.2-7-.2s-4.2 0-7 .2c-.4 0-1.2 0-2 .8-.6.6-.8 2-.8 2S2 9.6 2 11.2v1.5c0 1.7.2 3.3.2 3.3s.2 1.4.8 2c.8.8 1.8.8 2.2.9 1.6.1 6.8.1 6.8.1s4.2 0 7-.2c.4 0 1.2 0 2-.8.6-.6.8-2 .8-2s.2-1.6.2-3.2v-1.5c0-1.7-.2-3.3-.2-3.3zM9.9 14.6V9l5.4 2.8-5.4 2.8z"/></symbol></svg>
