<svg xmlns="http://www.w3.org/2000/svg" viewBox="0 0 355 330" class="justonetree-logo"><defs>
	<style>.a,.d{font-size:46.12px;font-family:MuseoSansRounded-700, Museo Sans Rounded;}.a,.q{fill:#729b65;}.b{letter-spacing:-0.04em;}.c{fill:#d6af56;}.d,.l{fill:#edd674;}.e{letter-spacing:-0.02em;}.f{letter-spacing:0em;}.g{letter-spacing:-0.01em;}.h{letter-spacing:0em;}.i,.j{fill:#fff;}.i{stroke:#ad8a44;stroke-miterlimit:10;stroke-width:4px;}.k{fill:#d6af57;}.m{fill:#9dbec6;}.n{fill:#a93535;}.o{fill:#81669a;}.p{fill:#edd673;}.r{fill:#e89368;}</style>
</defs>
<title>Just One Tree</title>

<text class="title" transform="translate(0 265)">JUST<tspan>ONE</tspan>TREE</text>
<text class="subtitle" transform="translate(70 315)">San Francisco</text>

<circle class="i" cx="173.51" cy="114.71" r="101.15"/><path class="j" d="M173.51,208.36a93.65,93.65,0,1,1,93.65-93.65A93.76,93.76,0,0,1,173.51,208.36Z"/><path class="k" d="M173.51,28.55a86.15,86.15,0,1,1-86.15,86.15,86.25,86.25,0,0,1,86.15-86.15m0-15A101.15,101.15,0,1,0,274.66,114.71,101.15,101.15,0,0,0,173.51,13.55Z"/><path class="l" d="M173.51,23.55a91.15,91.15,0,1,1-91.15,91.15,91.26,91.26,0,0,1,91.15-91.15m0-10A101.15,101.15,0,1,0,274.66,114.71,101.15,101.15,0,0,0,173.51,13.55Z"/><path class="m" d="M198.54,54A12.09,12.09,0,0,0,188,43.8a14.3,14.3,0,0,0-13.25,5.64,7.74,7.74,0,0,0-1.3,2.65,7.74,7.74,0,0,0-1.3-2.65A14.25,14.25,0,0,0,159,43.8,12,12,0,0,0,148.47,54c-1.3,7,1.69,11.44,6.09,16.8,6,7.33,12.52,21.32,18.94,28.31,6.43-7,13-20.93,19-28.31C196.9,65.39,199.89,61,198.54,54Z"/><path class="n" d="M192.5,158.66c-6-7.39-12.57-21.32-19-28.31-6.43,7-13,21-18.94,28.31-4.4,5.36-7.39,9.75-6.09,16.8A12,12,0,0,0,159,185.61,14.25,14.25,0,0,0,172.21,180a7.74,7.74,0,0,0,1.3-2.65,7.74,7.74,0,0,0,1.3,2.65A14.3,14.3,0,0,0,188,185.61a12.09,12.09,0,0,0,10.49-10.15C199.89,168.41,196.9,164,192.5,158.66Z"/><path class="o" d="M133.41,62.66a12.09,12.09,0,0,0-14,4A14.3,14.3,0,0,0,117.64,81a7.74,7.74,0,0,0,1.65,2.45,7.74,7.74,0,0,0-2.94-.2,14.25,14.25,0,0,0-11.51,8.65A12,12,0,0,0,108.38,106c5.45,4.65,10.76,4.26,17.59,3.13,9.33-1.51,24.72-.18,34-2.25-2.84-9.06-11.64-21.69-15-30.61C142.5,69.8,140.19,65,133.41,62.66Z"/><path class="p" d="M221.08,120.24c-9.41,1.53-24.75.23-34,2.3,2.84,9.06,11.69,21.72,15,30.56,2.44,6.49,4.75,11.27,11.5,13.67a12,12,0,0,0,14-4,14.25,14.25,0,0,0,1.74-14.29,7.74,7.74,0,0,0-1.65-2.45,7.74,7.74,0,0,0,2.94.2,14.3,14.3,0,0,0,11.51-8.65,12.09,12.09,0,0,0-3.55-14.15C233.22,118.72,227.91,119.11,221.08,120.24Z"/><path class="q" d="M238.64,106a12.09,12.09,0,0,0,3.55-14.15,14.3,14.3,0,0,0-11.51-8.65,7.74,7.74,0,0,0-2.94.2,7.74,7.74,0,0,0,1.65-2.45,14.25,14.25,0,0,0-1.74-14.29,12,12,0,0,0-14-4c-6.75,2.4-9.07,7.19-11.5,13.67-3.36,8.84-12.21,21.5-15,30.56,9.27,2.07,24.6.77,34,2.3C227.91,110.3,233.22,110.69,238.64,106Z"/><path class="r" d="M144.94,153.13c3.38-8.92,12.18-21.55,15-30.61-9.27-2.07-24.65-.74-34-2.25-6.84-1.13-12.14-1.52-17.59,3.13a12,12,0,0,0-3.55,14.15,14.25,14.25,0,0,0,11.51,8.65,7.74,7.74,0,0,0,2.94-.2,7.74,7.74,0,0,0-1.65,2.45,14.3,14.3,0,0,0,1.74,14.29,12.09,12.09,0,0,0,14,4C140.19,164.4,142.5,159.61,144.94,153.13Z"/></svg>
