<?xml version="1.0" encoding="utf-8"?>
<svg version="1.1" class="justonetree-logo" xmlns="http://www.w3.org/2000/svg" xmlns:xlink="http://www.w3.org/1999/xlink" x="0px" y="0px"
	 viewBox="0 0 206.3 206.3" style="enable-background:new 0 0 206.3 206.3;" xml:space="preserve">
<style type="text/css">
	.st0{fill:#FFFFFF;stroke:#AD8A44;stroke-width:4;stroke-miterlimit:10;}
	.st1{fill:#FFFFFF;}
	.st2{fill:#D6AF57;}
	.st3{fill:#EDD674;}
	.st4{fill:#9DBEC6;}
	.st5{fill:#A93535;}
	.st6{fill:#81669A;}
	.st7{fill:#EDD673;}
	.st8{fill:#729B65;}
	.st9{fill:#E89368;}
</style>
<circle class="st0" cx="103.2" cy="103.2" r="101.2"/>
<path class="st1" d="M103.2,196.8c-51.7,0-93.6-41.9-93.6-93.7S51.4,9.5,103.2,9.5s93.7,41.9,93.7,93.7
	C196.7,154.8,154.8,196.7,103.2,196.8z"/>
<path class="st2" d="M103.2,17c47.6,0,86.2,38.6,86.2,86.1s-38.6,86.2-86.2,86.2S17,150.7,17,103.1l0,0C17.1,55.6,55.6,17,103.2,17
	 M103.2,2C47.3,2,2,47.3,2,103.1s45.3,101.2,101.1,101.2c55.9,0,101.1-45.3,101.2-101.1C204.3,47.3,159,2,103.2,2
	C103.2,2,103.2,2,103.2,2z"/>
<path class="st3" d="M103.2,12c50.3,0,91.2,40.8,91.2,91.2s-40.8,91.2-91.2,91.2S12,153.5,12,103.1c0,0,0,0,0,0
	C12.1,52.8,52.8,12.1,103.2,12 M103.2,2C47.3,2,2,47.3,2,103.1s45.3,101.2,101.1,101.2c55.9,0,101.1-45.3,101.2-101.1
	C204.3,47.3,159,2,103.2,2C103.2,2,103.2,2,103.2,2z"/>
<path class="st4" d="M128.2,42.4c-0.8-5.4-5.1-9.6-10.5-10.2c-5.1-0.6-10.2,1.5-13.2,5.6c-0.6,0.8-1,1.7-1.3,2.7
	c-0.3-1-0.7-1.9-1.3-2.7c-3.1-4.1-8.1-6.3-13.1-5.6c-5.4,0.6-9.7,4.8-10.5,10.2c-1.3,7,1.7,11.4,6.1,16.8c6,7.3,12.5,21.3,18.9,28.3
	c6.4-7,13-20.9,19-28.3C126.5,53.8,129.5,49.4,128.2,42.4z"/>
<path class="st5" d="M122.1,147.1c-6-7.4-12.6-21.3-19-28.3c-6.4,7-13,21-18.9,28.3c-4.4,5.4-7.4,9.8-6.1,16.8
	c0.8,5.4,5.1,9.5,10.5,10.1c5.1,0.6,10.1-1.5,13.2-5.6c0.6-0.8,1-1.7,1.3-2.6c0.3,1,0.7,1.9,1.3,2.6c3.1,4.1,8.1,6.2,13.2,5.6
	c5.4-0.7,9.7-4.8,10.5-10.1C129.5,156.9,126.5,152.4,122.1,147.1z"/>
<path class="st6" d="M63.1,51.1c-5-1.9-10.7-0.3-14,4c-3.1,4.1-3.8,9.6-1.8,14.3c0.4,0.9,0.9,1.7,1.7,2.4c-1-0.3-2-0.3-2.9-0.2
	c-5.1,0.6-9.5,3.9-11.5,8.7c-2.1,5-0.7,10.7,3.5,14.1c5.4,4.7,10.8,4.3,17.6,3.1c9.3-1.5,24.7-0.2,34-2.2
	c-2.8-9.1-11.6-21.7-15-30.6C72.1,58.2,69.8,53.4,63.1,51.1z"/>
<path class="st7" d="M150.7,108.7c-9.4,1.5-24.7,0.2-34,2.3c2.8,9.1,11.7,21.7,15,30.6c2.4,6.5,4.8,11.3,11.5,13.7
	c5,2,10.8,0.3,14-4c3.1-4.1,3.8-9.6,1.7-14.3c-0.4-0.9-0.9-1.7-1.6-2.4c1,0.3,2,0.3,2.9,0.2c5.1-0.6,9.5-3.9,11.5-8.6
	c2.1-5,0.7-10.8-3.5-14.2C162.9,107.2,157.6,107.6,150.7,108.7z"/>
<path class="st8" d="M168.3,94.4c4.2-3.4,5.7-9.2,3.6-14.2c-2-4.7-6.4-8-11.5-8.7c-1-0.1-2-0.1-2.9,0.2c0.7-0.7,1.3-1.5,1.6-2.4
	c2-4.7,1.4-10.2-1.7-14.3c-3.2-4.3-9-6-14-4c-6.8,2.4-9.1,7.2-11.5,13.7c-3.4,8.8-12.2,21.5-15,30.6c9.3,2.1,24.6,0.8,34,2.3
	C157.6,98.7,162.9,99.1,168.3,94.4z"/>
<path class="st9" d="M74.6,141.6c3.4-8.9,12.2-21.6,15-30.6c-9.3-2.1-24.6-0.7-34-2.2c-6.8-1.1-12.1-1.5-17.6,3.1
	c-4.2,3.4-5.7,9.2-3.6,14.2c2,4.8,6.4,8.1,11.5,8.6c1,0.1,2,0.1,2.9-0.2c-0.7,0.7-1.3,1.5-1.7,2.4c-2,4.7-1.4,10.2,1.7,14.3
	c3.3,4.3,9,5.9,14,4C69.8,152.8,72.1,148.1,74.6,141.6z"/>
</svg>
