<svg xmlns="http://www.w3.org/2000/svg" viewBox="0 0 312.26 255.11"><defs><style>.a{fill:#729b65;}.b{fill:#edd673;}.c,.d{fill:#fff;}.c{stroke:#ad8a44;stroke-miterlimit:10;stroke-width:4px;}.e{fill:#d6af57;}.f{fill:#edd674;}.g{fill:#9dbec6;}.h{fill:#a93535;}.i{fill:#81669a;}.j{fill:#e89368;}</style></defs><title>just-one-tree</title><path class="a" d="M16.27,286.54h2.17c1.25,0,1.71.51,1.85,1.85.18,2.63,1.38,4.84,4.29,4.84,2.26,0,4.24-1.38,4.24-4.89V270.48h-6.5a1.7,1.7,0,0,1-1.94-1.89V267.3a1.73,1.73,0,0,1,1.94-1.94H32.83a1.75,1.75,0,0,1,1.94,1.94v21.13c0,7.15-5.17,10.24-10.19,10.24s-10.19-3.23-10.19-10.24A1.68,1.68,0,0,1,16.27,286.54Z" transform="translate(-14.38 -43.55)"/><path class="a" d="M41.59,267.3a1.72,1.72,0,0,1,1.89-1.94h2.08a1.73,1.73,0,0,1,1.94,1.94v19c0,4.43,2.86,6.92,7.24,6.92S62,290.73,62,286.31v-19a1.72,1.72,0,0,1,1.89-1.94H66a1.72,1.72,0,0,1,1.89,1.94v19.05c0,7.33-5.26,12.32-13.15,12.32s-13.19-5-13.19-12.32Z" transform="translate(-14.38 -43.55)"/><path class="a" d="M73.7,292.67l1-1.48c.74-1,1.52-1.06,2.68-.42a11.49,11.49,0,0,0,6.64,2.4c3,0,4.89-1.52,4.89-3.74,0-6.23-15.27-4.94-15.27-15.13,0-5.77,4.8-9.5,11-9.5a15.23,15.23,0,0,1,8.44,2.49,1.82,1.82,0,0,1,.6,2.63l-.83,1.52c-.69,1.34-1.66,1.15-2.63.65a10.71,10.71,0,0,0-5.67-1.8c-3,0-5,1.48-5,3.69,0,6.13,15.27,4.57,15.27,15,0,5.3-4,9.69-10.84,9.69A17.37,17.37,0,0,1,74,295.35,1.72,1.72,0,0,1,73.7,292.67Z" transform="translate(-14.38 -43.55)"/><path class="a" d="M107.69,270.48H98.88a1.7,1.7,0,0,1-1.94-1.89V267.3a1.73,1.73,0,0,1,1.94-1.94H122.4a1.72,1.72,0,0,1,1.89,1.94v1.29a1.68,1.68,0,0,1-1.89,1.89h-8.81v25.69a1.71,1.71,0,0,1-1.94,1.94h-2.08a1.7,1.7,0,0,1-1.89-1.94Z" transform="translate(-14.38 -43.55)"/><path class="b" d="M141.31,264.81c9.92,0,16.93,7.33,16.93,16.7,0,9.64-7,17.16-16.93,17.16s-16.93-7.52-16.93-17.16C124.39,272.15,131.4,264.81,141.31,264.81Zm0,28.41c6.27,0,10.79-5.07,10.79-11.72,0-6.37-4.52-11.25-10.79-11.25s-10.79,4.89-10.79,11.25C130.52,288.15,135,293.23,141.31,293.23Z" transform="translate(-14.38 -43.55)"/><path class="b" d="M163.87,267.3a1.72,1.72,0,0,1,1.89-1.94h2.49a2.33,2.33,0,0,1,2.31,1.29l11.62,17.62a55.45,55.45,0,0,1,2.72,5.07H185s-.32-3.14-.32-5.07v-17a1.75,1.75,0,0,1,1.94-1.94h2.08a1.75,1.75,0,0,1,1.94,1.94v28.88a1.73,1.73,0,0,1-1.94,1.94h-2.49a2.34,2.34,0,0,1-2.26-1.29l-11.67-17.57c-1.2-1.94-2.72-5.07-2.72-5.07h-.09s.32,3.14.32,5.07v16.93a1.7,1.7,0,0,1-1.89,1.94h-2.12a1.7,1.7,0,0,1-1.89-1.94Z" transform="translate(-14.38 -43.55)"/><path class="b" d="M198.14,267.3a1.72,1.72,0,0,1,1.89-1.94h15.78a1.75,1.75,0,0,1,1.94,1.94v1.29a1.72,1.72,0,0,1-1.94,1.89H204v8.58h9.13a1.72,1.72,0,0,1,1.94,1.89v1.29a1.73,1.73,0,0,1-1.94,1.94H204V293h12.5a1.72,1.72,0,0,1,1.94,1.89v1.29a1.73,1.73,0,0,1-1.94,1.94H200a1.7,1.7,0,0,1-1.89-1.94Z" transform="translate(-14.38 -43.55)"/><path class="a" d="M231.07,270.48h-8.81a1.7,1.7,0,0,1-1.94-1.89V267.3a1.73,1.73,0,0,1,1.94-1.94h23.52a1.72,1.72,0,0,1,1.89,1.94v1.29a1.68,1.68,0,0,1-1.89,1.89H237v25.69a1.71,1.71,0,0,1-1.94,1.94H233a1.7,1.7,0,0,1-1.89-1.94Z" transform="translate(-14.38 -43.55)"/><path class="a" d="M251.74,267.3a1.72,1.72,0,0,1,1.89-1.94h8.86c3.23,0,4.84.28,6.23.88,3.32,1.38,5.49,4.52,5.49,8.95,0,3.87-2,7.56-5.44,8.95v.09a11.79,11.79,0,0,1,1.06,1.71l5.4,9.87c.78,1.34.18,2.31-1.34,2.31h-2.49a2.34,2.34,0,0,1-2.26-1.34l-5.77-10.89h-5.72v10.29a1.7,1.7,0,0,1-1.89,1.94h-2.12a1.7,1.7,0,0,1-1.89-1.94ZM263,280.72a4.81,4.81,0,0,0,5.17-5.21c0-2.08-.78-3.74-2.58-4.47a8.19,8.19,0,0,0-3.55-.55h-4.38v10.24Z" transform="translate(-14.38 -43.55)"/><path class="a" d="M280.61,267.3a1.72,1.72,0,0,1,1.89-1.94h15.78a1.75,1.75,0,0,1,1.94,1.94v1.29a1.72,1.72,0,0,1-1.94,1.89H286.51v8.58h9.13a1.72,1.72,0,0,1,1.94,1.89v1.29a1.73,1.73,0,0,1-1.94,1.94h-9.13V293H299a1.72,1.72,0,0,1,1.94,1.89v1.29a1.73,1.73,0,0,1-1.94,1.94H282.5a1.7,1.7,0,0,1-1.89-1.94Z" transform="translate(-14.38 -43.55)"/><path class="a" d="M306.3,267.3a1.72,1.72,0,0,1,1.89-1.94H324a1.75,1.75,0,0,1,1.94,1.94v1.29a1.72,1.72,0,0,1-1.94,1.89H312.2v8.58h9.13a1.72,1.72,0,0,1,1.94,1.89v1.29a1.73,1.73,0,0,1-1.94,1.94H312.2V293h12.5a1.72,1.72,0,0,1,1.94,1.89v1.29a1.73,1.73,0,0,1-1.94,1.94H308.19a1.7,1.7,0,0,1-1.89-1.94Z" transform="translate(-14.38 -43.55)"/><circle class="c" cx="159.13" cy="103.15" r="101.15"/><path class="d" d="M173.51,240.36a93.65,93.65,0,1,1,93.65-93.65A93.76,93.76,0,0,1,173.51,240.36Z" transform="translate(-14.38 -43.55)"/><path class="e" d="M173.51,60.55a86.15,86.15,0,1,1-86.15,86.15,86.25,86.25,0,0,1,86.15-86.15m0-15A101.15,101.15,0,1,0,274.66,146.71,101.15,101.15,0,0,0,173.51,45.55Z" transform="translate(-14.38 -43.55)"/><path class="f" d="M173.51,55.55a91.15,91.15,0,1,1-91.15,91.15,91.26,91.26,0,0,1,91.15-91.15m0-10A101.15,101.15,0,1,0,274.66,146.71,101.15,101.15,0,0,0,173.51,45.55Z" transform="translate(-14.38 -43.55)"/><path class="g" d="M198.54,86A12.09,12.09,0,0,0,188,75.8a14.3,14.3,0,0,0-13.25,5.64,7.74,7.74,0,0,0-1.3,2.65,7.74,7.74,0,0,0-1.3-2.65A14.25,14.25,0,0,0,159,75.8,12,12,0,0,0,148.47,86c-1.3,7,1.69,11.44,6.09,16.8,6,7.33,12.52,21.32,18.94,28.31,6.43-7,13-20.93,19-28.31C196.9,97.4,199.89,93,198.54,86Z" transform="translate(-14.38 -43.55)"/><path class="h" d="M192.5,190.66c-6-7.39-12.57-21.32-19-28.31-6.43,7-13,21-18.94,28.31-4.4,5.36-7.39,9.75-6.09,16.8A12,12,0,0,0,159,217.61,14.25,14.25,0,0,0,172.21,212a7.74,7.74,0,0,0,1.3-2.65,7.74,7.74,0,0,0,1.3,2.65A14.3,14.3,0,0,0,188,217.61a12.09,12.09,0,0,0,10.49-10.15C199.89,200.42,196.9,196,192.5,190.66Z" transform="translate(-14.38 -43.55)"/><path class="i" d="M133.41,94.66a12.09,12.09,0,0,0-14,4A14.3,14.3,0,0,0,117.64,113a7.74,7.74,0,0,0,1.65,2.45,7.74,7.74,0,0,0-2.94-.2,14.25,14.25,0,0,0-11.51,8.65A12,12,0,0,0,108.38,138c5.45,4.65,10.76,4.26,17.59,3.13,9.33-1.51,24.72-.18,34-2.25-2.84-9.06-11.64-21.69-15-30.61C142.5,101.8,140.19,97,133.41,94.66Z" transform="translate(-14.38 -43.55)"/><path class="b" d="M221.08,152.24c-9.41,1.53-24.75.23-34,2.3,2.84,9.06,11.69,21.72,15,30.56,2.44,6.49,4.75,11.27,11.5,13.67a12,12,0,0,0,14-4,14.25,14.25,0,0,0,1.74-14.29,7.74,7.74,0,0,0-1.65-2.45,7.74,7.74,0,0,0,2.94.2,14.3,14.3,0,0,0,11.51-8.65,12.09,12.09,0,0,0-3.55-14.15C233.22,150.72,227.91,151.11,221.08,152.24Z" transform="translate(-14.38 -43.55)"/><path class="a" d="M238.64,138a12.09,12.09,0,0,0,3.55-14.15,14.3,14.3,0,0,0-11.51-8.65,7.74,7.74,0,0,0-2.94.2,7.74,7.74,0,0,0,1.65-2.45,14.25,14.25,0,0,0-1.74-14.29,12,12,0,0,0-14-4c-6.75,2.4-9.07,7.19-11.5,13.67-3.36,8.84-12.21,21.5-15,30.56,9.27,2.07,24.6.77,34,2.3C227.91,142.3,233.22,142.69,238.64,138Z" transform="translate(-14.38 -43.55)"/><path class="j" d="M144.94,185.13c3.38-8.92,12.18-21.55,15-30.61-9.27-2.07-24.65-.74-34-2.25-6.84-1.13-12.14-1.52-17.59,3.13a12,12,0,0,0-3.55,14.15,14.25,14.25,0,0,0,11.51,8.65,7.74,7.74,0,0,0,2.94-.2,7.74,7.74,0,0,0-1.65,2.45,14.3,14.3,0,0,0,1.74,14.29,12.09,12.09,0,0,0,14,4C140.19,196.4,142.5,191.61,144.94,185.13Z" transform="translate(-14.38 -43.55)"/></svg>