<svg xmlns="http://www.w3.org/2000/svg" viewBox="0 0 180 177"><defs><style>.plant-cls-2{fill:#eeebe9;}.plant-cls-3{fill:#e5cd67;}.plant-cls-4{fill:#ecd573;}.plant-cls-5{fill:#729a65;}</style></defs><title>shareplant</title><g id="outer_circle" data-name="outer circle"><polygon class="illustration-badge" points="90 2 98.3 9.56 107.98 3.89 114.53 13.01 125.18 9.48 129.69 19.76 140.84 18.52 143.11 29.51 154.28 30.62 154.22 41.84 164.91 45.25 162.51 56.22 172.27 61.77 167.64 72 176.03 79.46 169.38 88.5 176.03 97.54 167.64 105 172.27 115.23 162.51 120.78 164.91 131.75 154.22 135.16 154.28 146.38 143.11 147.49 140.84 158.48 129.69 157.24 125.18 167.52 114.53 163.99 107.98 173.11 98.3 167.44 90 175 81.7 167.44 72.02 173.11 65.47 163.99 54.82 167.52 50.31 157.24 39.16 158.48 36.89 147.49 25.72 146.38 25.78 135.16 15.09 131.75 17.49 120.78 7.73 115.23 12.36 105 3.97 97.54 10.62 88.5 3.97 79.46 12.36 72 7.73 61.77 17.49 56.22 15.09 45.25 25.78 41.84 25.72 30.62 36.89 29.51 39.16 18.52 50.31 19.76 54.82 9.48 65.47 13.01 72.02 3.89 81.7 9.56 90 2"/><path class="plant-cls-2" d="M90,158.47a70,70,0,1,1,70-70A70.05,70.05,0,0,1,90,158.47Z"/><path class="illustration-badge" d="M90,21.53a67,67,0,1,1-67,67,67,67,0,0,1,67-67m0-6a73,73,0,1,0,73,73,73,73,0,0,0-73-73Z"/><path class="plant-cls-2" d="M90,18.53a70,70,0,1,1-70,70,70.05,70.05,0,0,1,70-70m0-3a73,73,0,1,0,73,73,73,73,0,0,0-73-73Z"/></g><g id="illustrations"><g id="plant"><path class="illustration-badge" d="M82.75,60A13.92,13.92,0,0,1,92,63.94a16.22,16.22,0,0,1,4.68,9.33A25.63,25.63,0,0,1,96,83.47a33.84,33.84,0,0,1-3.86,9.2c.56-3.28,1.19-6.46,1.56-9.63a36.47,36.47,0,0,0,0-9.31,17.48,17.48,0,0,0-3.43-8.21A18.84,18.84,0,0,0,82.75,60Z"/><polygon class="plant-cls-3" points="111.58 142.95 68.42 142.95 64.42 100 115.58 100 111.58 142.95"/><rect class="plant-cls-4" x="56.5" y="85" width="67" height="20"/><path class="plant-cls-5" d="M85.44,64.37a19.78,19.78,0,0,0-3.61,1.58,15.43,15.43,0,0,0-3.21,2.39,9.35,9.35,0,0,1,2.79-3,13.83,13.83,0,0,1,3.72-1.88l.51-.14a12.11,12.11,0,0,0-11.5,0c-6.69,3.45-10.31,13.63-10.31,13.63s9.75,2.31,16.31-1.65c5.49-3.31,6-9.25,6-11.11C85.93,64.24,85.68,64.29,85.44,64.37Z"/><path class="plant-cls-5" d="M88.06,59.74a19.78,19.78,0,0,0,1.87-3.47A15.43,15.43,0,0,0,91,52.42a9.35,9.35,0,0,1-.33,4.11,13.83,13.83,0,0,1-1.78,3.77l-.32.42a12.11,12.11,0,0,0,9.06-7.1c3.16-6.84-.25-17.09-.25-17.09s-9.11,4.17-11.85,11.34c-2.29,6,1,11,2.09,12.46C87.76,60.14,87.92,59.94,88.06,59.74Z"/><path class="plant-cls-5" d="M82.62,58.37a19.78,19.78,0,0,0-3.19-2.31,15.43,15.43,0,0,0-3.68-1.56,9.35,9.35,0,0,1,4,.87,13.83,13.83,0,0,1,3.51,2.26l.38.37a12.11,12.11,0,0,0-5.85-9.91c-6.36-4-17-2-17-2s2.94,9.58,9.68,13.23c5.64,3.06,11,.49,12.63-.43C83,58.73,82.81,58.54,82.62,58.37Z"/></g></g></svg>
