<svg xmlns="http://www.w3.org/2000/svg" viewBox="0 0 180 177"><defs><style>.cls-1{fill:#7d735b;}.cls-2{fill:#efecea;}.cls-3{fill:#fff;}.cls-4{fill:#332f25;}.cls-5{fill:#5b7c51;}.cls-6{fill:#729b65;}.cls-7{fill:#8eaf84;}.cls-8{fill:#edd672;}.cls-9{fill:#d6c99f;}.cls-10{opacity:0.1;}.cls-11{fill:none;stroke:#332f25;stroke-miterlimit:10;stroke-width:0.25px;}.cls-12{fill:#e5d6da;}</style></defs><title>registerplant</title><g id="outer_circle" data-name="outer circle"><polygon class="cls-1" points="89.67 2 97.96 9.56 107.65 3.89 114.19 13.01 124.85 9.48 129.35 19.76 140.51 18.52 142.78 29.51 153.95 30.62 153.88 41.84 164.58 45.25 162.18 56.22 171.93 61.77 167.31 72 175.69 79.46 169.04 88.5 175.69 97.54 167.31 105 171.93 115.23 162.18 120.78 164.58 131.75 153.88 135.16 153.95 146.38 142.78 147.49 140.51 158.48 129.35 157.24 124.85 167.52 114.19 163.99 107.65 173.11 97.96 167.44 89.67 175 81.37 167.44 71.68 173.11 65.14 163.99 54.48 167.52 49.98 157.24 38.82 158.48 36.55 147.49 25.39 146.38 25.45 135.16 14.76 131.75 17.15 120.78 7.4 115.23 12.03 105 3.64 97.54 10.29 88.5 3.64 79.46 12.03 72 7.4 61.77 17.15 56.22 14.76 45.25 25.45 41.84 25.39 30.62 36.55 29.51 38.82 18.52 49.98 19.76 54.48 9.48 65.14 13.01 71.68 3.89 81.37 9.56 89.67 2"/><path class="cls-2" d="M89.67,158.47a70,70,0,1,1,70-70A70.05,70.05,0,0,1,89.67,158.47Z"/><path class="cls-1" d="M89.67,21.53a67,67,0,1,1-67,67,67,67,0,0,1,67-67m0-6a73,73,0,1,0,73,73,73,73,0,0,0-73-73Z"/></g><g id="illustrations"><g id="register"><rect class="cls-3" x="50.58" y="54.25" width="66" height="72.78"/><path class="cls-4" d="M116.33,54.5v72.28H50.83V54.5h65.5m.5-.5H50.33v73.28h66.5V54Z"/><path class="cls-5" d="M61.5,70.55V74.7H57.36V70.55H61.5m.5-.5H56.86V75.2H62V70.05Z"/><rect class="cls-5" x="65.14" y="70.05" width="43.75" height="5.14"/><path class="cls-6" d="M61.5,82.29v4.14H57.36V82.29H61.5m.5-.5H56.86v5.14H62V81.79Z"/><rect class="cls-6" x="65.14" y="81.79" width="43.75" height="5.14"/><path class="cls-7" d="M61.5,94v4.14H57.36V94H61.5m.5-.5H56.86v5.14H62V93.53Z"/><rect class="cls-7" x="65.14" y="93.53" width="43.75" height="5.14"/><rect class="cls-8" x="82.38" y="92.77" width="50.78" height="9" transform="translate(-36.15 78.21) rotate(-34.52)"/><rect class="cls-8" x="82.38" y="92.77" width="50.78" height="9" transform="translate(-36.15 78.21) rotate(-34.52)"/><rect class="cls-1" x="128.33" y="77.25" width="4" height="9" transform="translate(-23.38 88.26) rotate(-34.52)"/><rect class="cls-4" x="128.6" y="78.11" width="0.96" height="9" transform="translate(-24.09 87.71) rotate(-34.52)"/><rect class="cls-4" x="129.84" y="77.26" width="0.96" height="9" transform="translate(-23.39 88.26) rotate(-34.52)"/><rect class="cls-4" x="131.07" y="76.41" width="0.96" height="9" transform="translate(-22.69 88.81) rotate(-34.52)"/><polygon class="cls-9" points="80.46 116.06 89.43 115.35 84.33 107.93 80.46 116.06"/><polygon class="cls-9" points="86.62 108.18 84.32 107.94 86.03 110.41 86.62 108.18"/><polygon class="cls-9" points="88.32 110.65 86.03 110.41 87.72 112.88 88.32 110.65"/><polygon class="cls-9" points="90.02 113.12 87.72 112.88 89.43 115.35 90.02 113.12"/><polygon class="cls-4" points="80.45 116.05 83.3 115.83 81.68 113.47 80.45 116.05"/><g class="cls-10"><line class="cls-11" x1="126.1" y1="82.84" x2="89.75" y2="107.85"/><line class="cls-11" x1="127.8" y1="85.31" x2="91.45" y2="110.32"/></g><rect class="cls-12" x="129.47" y="76.84" width="9" height="4.81" transform="translate(123.33 -76.04) rotate(55.48)"/></g></g><g id="inner_circle" data-name="inner circle"><path class="cls-2" d="M89.67,18.53a70,70,0,1,1-70,70,70.05,70.05,0,0,1,70-70m0-3a73,73,0,1,0,73,73,73,73,0,0,0-73-73Z"/></g></svg>