<svg xmlns="http://www.w3.org/2000/svg" viewBox="0 0 180 177"><defs><style>.share-cls-1{fill:#7d745c;}.share-cls-2{fill:#eeebe9;}.share-cls-3{fill:#ecd573;}.share-cls-4{fill:#f9efcb;}.share-cls-5{fill:#332f25;}.share-cls-6{fill:#e4d5d9;}</style></defs><title>shareplant</title><g id="outer_circle" data-name="outer circle"><polygon class="share-cls-1" points="90 2 98.3 9.56 107.98 3.89 114.53 13.01 125.18 9.48 129.69 19.76 140.84 18.52 143.11 29.51 154.28 30.62 154.22 41.84 164.91 45.25 162.51 56.22 172.27 61.77 167.64 72 176.03 79.46 169.38 88.5 176.03 97.54 167.64 105 172.27 115.23 162.51 120.78 164.91 131.75 154.22 135.16 154.28 146.38 143.11 147.49 140.84 158.48 129.69 157.24 125.18 167.52 114.53 163.99 107.98 173.11 98.3 167.44 90 175 81.7 167.44 72.02 173.11 65.47 163.99 54.82 167.52 50.31 157.24 39.16 158.48 36.89 147.49 25.72 146.38 25.78 135.16 15.09 131.75 17.49 120.78 7.73 115.23 12.36 105 3.97 97.54 10.62 88.5 3.97 79.46 12.36 72 7.73 61.77 17.49 56.22 15.09 45.25 25.78 41.84 25.72 30.62 36.89 29.51 39.16 18.52 50.31 19.76 54.82 9.48 65.47 13.01 72.02 3.89 81.7 9.56 90 2"/><path class="share-cls-2" d="M90,158.47a70,70,0,1,1,70-70A70.05,70.05,0,0,1,90,158.47Z"/><path class="share-cls-1" d="M90,21.53a67,67,0,1,1-67,67,67,67,0,0,1,67-67m0-6a73,73,0,1,0,73,73,73,73,0,0,0-73-73Z"/><path class="share-cls-2" d="M90,18.53a70,70,0,1,1-70,70,70.05,70.05,0,0,1,70-70m0-3a73,73,0,1,0,73,73,73,73,0,0,0-73-73Z"/></g><g id="illustrations"><g id="share"><path class="share-cls-3" d="M136.35,78.91a25.41,25.41,0,0,1-38.63,33"/><circle class="share-cls-3" cx="133.25" cy="113.25" r="5.25"/><path class="share-cls-3" d="M127.5,103.46c-10.2,9.46-22.94,13.78-28.46,9.63s-1.73-15.17,8.47-24.63S130.44,74.68,136,78.82,137.69,94,127.5,103.46Z"/><path class="share-cls-4" d="M118.57,94.07c-.67-.14,6.28-13,6.28-13A1.72,1.72,0,0,1,126,80c3.69-.85,7.26,1.06,7.92,2.38.07.13.46.5-.75,1.45C133.16,83.8,119.23,94.21,118.57,94.07Z"/><path class="share-cls-4" d="M116,97.19c.77,0-4.14,12.34-4.14,12.34a1.52,1.52,0,0,1-1,1.2c-3.9,1.37-8.27.33-9.29-.7-.1-.1-.61-.35.52-1.39C102,108.64,115.19,97.19,116,97.19Z"/><path class="share-cls-4" d="M116.18,96.17c-.19.78-14.66,10-14.66,10s-1.08.91-1.27.35c-.8-2.35,1.58-7.95,3.13-10.16A2.05,2.05,0,0,1,105,95.28S116.37,95.39,116.18,96.17Z"/><path class="share-cls-4" d="M118.37,95.47c.2-.78,14.68-9.93,14.68-9.93s1.09-.9,1.27-.34c.77,2.37-1.67,8-3.24,10.2a2,2,0,0,1-1.64,1.07S118.17,96.25,118.37,95.47Z"/><path class="share-cls-4" d="M117.13,94.86c-.95.69-8.83-3.62-8.83-3.62s-.87-.08-.09-.91A43.73,43.73,0,0,1,120.4,82c.24-.09,1.15-.55.93.45C121.34,82.47,118.08,94.17,117.13,94.86Z"/><path class="share-cls-4" d="M117.36,96.79c.9-.76,10.56,1.63,10.56,1.63s1-.08.3.77c-2.83,3.58-9.23,8.12-11.7,9.32-.25.12-1.16.68-1.13-.23C115.4,108.28,116.46,97.55,117.36,96.79Z"/><path class="share-cls-5" d="M89.5,60.5l-5,62h-27l-5-62h37M90,60H52l0,.54,5,62,0,.46H85l0-.46,5-62L90,60Z"/><polygon class="share-cls-4" points="54.44 84.5 57.5 122.5 84.5 122.5 87.56 84.5 54.44 84.5"/><polygon class="share-cls-6" points="65.17 117.83 86.5 46.5 105.5 59.5 109.17 55.17 83.5 37.5 60.17 117.17 65.17 117.83"/></g></g></svg>
