<svg xmlns="http://www.w3.org/2000/svg" xmlns:xlink="http://www.w3.org/1999/xlink" viewBox="0 0 180 177"><defs><style>.share-cls-1,.share-cls-10,.share-cls-7{fill:none;}.share-cls-3{fill:#eeebe9;}.share-cls-4{fill:#e8c1c1;}.share-cls-5,.share-cls-9{fill:#fff;}.share-cls-6{clip-path:url(#clip-path);}.share-cls-7{stroke:#fff;stroke-width:3px;}.share-cls-10,.share-cls-7{stroke-miterlimit:10;}.share-cls-8{fill:#ecd573;}.share-cls-9{opacity:0.5;}.share-cls-10{stroke:#7d745c;}.share-cls-11{fill:#e5cd67;}.share-cls-12{fill:#f9efcb;}.share-cls-13{clip-path:url(#clip-path-2);}</style><clipPath id="clip-path"><path class="share-cls-1" d="M72.28,129.2a2.76,2.76,0,0,1-2.7-3.3L84,54.32a2.75,2.75,0,0,1,1.53-1.95l20.65-9.64a2.75,2.75,0,1,1,2.33,5l-19.39,9L75,127A2.75,2.75,0,0,1,72.28,129.2Z"/></clipPath><clipPath id="clip-path-2"><rect class="share-cls-1" x="75.5" y="59.63" width="16.88" height="14.88"/></clipPath></defs><title>get-involvedplant</title><g id="outer_circle" data-name="outer circle"><polygon class="illustration-badge" points="90 2 98.3 9.56 107.98 3.89 114.53 13.01 125.18 9.48 129.69 19.76 140.84 18.52 143.11 29.51 154.28 30.62 154.22 41.84 164.91 45.25 162.51 56.22 172.27 61.77 167.64 72 176.03 79.46 169.38 88.5 176.03 97.54 167.64 105 172.27 115.23 162.51 120.78 164.91 131.75 154.22 135.16 154.28 146.38 143.11 147.49 140.84 158.48 129.69 157.24 125.18 167.52 114.53 163.99 107.98 173.11 98.3 167.44 90 175 81.7 167.44 72.02 173.11 65.47 163.99 54.82 167.52 50.31 157.24 39.16 158.48 36.89 147.49 25.72 146.38 25.78 135.16 15.09 131.75 17.49 120.78 7.73 115.23 12.36 105 3.97 97.54 10.62 88.5 3.97 79.46 12.36 72 7.73 61.77 17.49 56.22 15.09 45.25 25.78 41.84 25.72 30.62 36.89 29.51 39.16 18.52 50.31 19.76 54.82 9.48 65.47 13.01 72.02 3.89 81.7 9.56 90 2"/><path class="share-cls-3" d="M90,158.47a70,70,0,1,1,70-70A70.05,70.05,0,0,1,90,158.47Z"/><path class="illustration-badge" d="M90,21.53a67,67,0,1,1-67,67,67,67,0,0,1,67-67m0-6a73,73,0,1,0,73,73,73,73,0,0,0-73-73Z"/><path class="share-cls-3" d="M90,18.53a70,70,0,1,1-70,70,70.05,70.05,0,0,1,70-70m0-3a73,73,0,1,0,73,73,73,73,0,0,0-73-73Z"/></g><g id="illustrations"><g id="share"><g id="straw"><path class="share-cls-4" d="M72.28,129.45a3,3,0,0,1-.6-.06,3,3,0,0,1-2.35-3.54L83.79,54.27a3,3,0,0,1,1.67-2.13l20.65-9.64a3,3,0,0,1,1.27-.28,3,3,0,0,1,1.27,5.73l-19.27,9L75.22,127A3,3,0,0,1,72.28,129.45Z"/><path class="share-cls-5" d="M107.38,42.47a2.75,2.75,0,0,1,1.17,5.25l-19.39,9L75,127a2.75,2.75,0,1,1-5.4-1.09L84,54.32a2.75,2.75,0,0,1,1.53-1.95l20.65-9.64a2.74,2.74,0,0,1,1.16-.26m0-.5h0a3.23,3.23,0,0,0-1.37.31L85.36,51.91a3.26,3.26,0,0,0-1.81,2.3L69.09,125.8a3.25,3.25,0,0,0,2.54,3.83,3.25,3.25,0,0,0,3.83-2.54l14.13-70,19.16-8.94a3.25,3.25,0,0,0-1.38-6.2Z"/><g class="share-cls-6"><line class="share-cls-7" x1="77.52" y1="129.03" x2="64.09" y2="127.65"/><line class="share-cls-7" x1="79.73" y1="123.99" x2="66.3" y2="122.61"/><line class="share-cls-7" x1="81.94" y1="118.95" x2="68.52" y2="117.56"/><line class="share-cls-7" x1="84.15" y1="113.9" x2="70.73" y2="112.52"/><line class="share-cls-7" x1="86.37" y1="108.86" x2="72.94" y2="107.48"/><line class="share-cls-7" x1="88.58" y1="103.82" x2="75.16" y2="102.44"/><line class="share-cls-7" x1="89.11" y1="98.04" x2="75.69" y2="96.66"/><line class="share-cls-7" x1="89.64" y1="92.26" x2="76.22" y2="90.88"/><line class="share-cls-7" x1="90.18" y1="86.48" x2="76.75" y2="85.1"/><line class="share-cls-7" x1="90.71" y1="80.7" x2="77.28" y2="79.32"/><line class="share-cls-7" x1="91.24" y1="74.92" x2="77.82" y2="73.54"/><line class="share-cls-7" x1="91.77" y1="69.14" x2="78.35" y2="67.76"/><line class="share-cls-7" x1="92.3" y1="63.36" x2="78.88" y2="61.98"/><line class="share-cls-7" x1="92.84" y1="57.58" x2="79.41" y2="56.2"/><line class="share-cls-7" x1="85.33" y1="46.39" x2="91.52" y2="59.84"/><line class="share-cls-7" x1="90.64" y1="44.01" x2="96.84" y2="57.47"/><line class="share-cls-7" x1="95.96" y1="41.64" x2="102.16" y2="55.1"/><line class="share-cls-7" x1="101.28" y1="39.27" x2="107.47" y2="52.73"/><line class="share-cls-7" x1="106.6" y1="36.9" x2="112.79" y2="50.35"/><line class="share-cls-7" x1="111.91" y1="34.52" x2="118.11" y2="47.98"/></g></g><g id="lemonade"><path class="share-cls-8" d="M89.21,119c-12.63-3.43-25.26,2.74-37.88-.7q-1.26-13.85-2.51-27.56c14.3,3.88,28.6-6.2,42.9-2.33Q90.46,103.77,89.21,119Z"/><polygon class="share-cls-8" points="87.82 131.03 52.94 131.09 51.39 115.55 89.31 115.55 87.82 131.03"/><rect class="share-cls-9" x="56.12" y="87.74" width="16.12" height="16.12" transform="translate(-17.33 14.24) rotate(-11.16)"/><rect class="share-cls-9" x="69.39" y="83.22" width="16.12" height="16.12" transform="translate(22.41 -15.03) rotate(12.94)"/><polygon class="share-cls-10" points="87.67 130.88 94.7 66.02 46.06 66.02 53.09 130.88 87.67 130.88"/></g><path class="share-cls-11" d="M132.71,94.9a23.32,23.32,0,1,1-35.45,30.31"/><circle class="share-cls-11" cx="133.15" cy="121.28" r="4.82" transform="translate(-46.6 109.97) rotate(-38.73)"/><path class="share-cls-8" d="M126.09,124.21c-9.57,8.68-22.49,9.09-28.87.93S93.44,103.33,103,94.66s22.49-9.09,28.87-.93S135.66,115.54,126.09,124.21Z"/><path class="share-cls-12" d="M125.4,123.33c-9,8.15-21.14,8.55-27.14.87s-3.55-20.5,5.44-28.66,21.14-8.55,27.14-.87S134.39,115.17,125.4,123.33Z"/><path class="share-cls-8" d="M124.48,122.14c-8.23,7.46-19.35,7.82-24.83.8s-3.25-18.76,5-26.22,19.35-7.82,24.83-.8S132.71,114.68,124.48,122.14Z"/><path class="share-cls-12" d="M113,107.48h0s1.44-6.17-1.64-9.87c-2.37-2.84-5.77.38-5.77.38h0s-3.52,3.07-1.33,6.06c2.86,3.9,8.74,3.43,8.74,3.43h0Z"/><path class="share-cls-12" d="M116.08,111.39h0s5.89-.47,8.74,3.43c2.19,3-1.33,6.06-1.33,6.06h0s-3.41,3.21-5.77.38c-3.08-3.7-1.64-9.86-1.64-9.87h0Z"/><path class="share-cls-12" d="M111.81,110.26h0a11.33,11.33,0,0,0-9.62-1.44,5.32,5.32,0,0,0-3.73,5.43h0s.16,4.16,4.27,3c5.35-1.46,9.07-7,9.08-7h0Z"/><path class="share-cls-12" d="M117.3,108.61h0s3.72-5.57,9.08-7c4.11-1.12,4.27,3,4.27,3h0a5.32,5.32,0,0,1-3.73,5.43,11.33,11.33,0,0,1-9.62-1.44h0Z"/><path class="share-cls-12" d="M113.33,112.21h0s-5.73,3-8,8.43c-1.73,4.17,2,5.05,2,5.05h0s3.69,1.09,5.6-3a13.88,13.88,0,0,0,.33-10.46h0Z"/><path class="share-cls-12" d="M115.77,106.66h0a13.88,13.88,0,0,1,.33-10.46c1.92-4.12,5.6-3,5.6-3h0s3.78.89,2,5.05c-2.26,5.43-8,8.43-8,8.43h0Z"/><path class="share-cls-12" d="M115.17,110.22a1,1,0,0,1-1.54,0,1.25,1.25,0,0,1,.31-1.63,1,1,0,0,1,1.54,0A1.25,1.25,0,0,1,115.17,110.22Z"/><g class="share-cls-13"><g id="straw-2" data-name="straw"><path class="share-cls-4" d="M72.28,129.45a3,3,0,0,1-.6-.06,3,3,0,0,1-2.35-3.54L83.79,54.27a3,3,0,0,1,1.67-2.13l20.65-9.64a3,3,0,0,1,1.27-.28,3,3,0,0,1,1.27,5.73l-19.27,9L75.22,127A3,3,0,0,1,72.28,129.45Z"/><path class="share-cls-5" d="M107.38,42.47a2.75,2.75,0,0,1,1.17,5.25l-19.39,9L75,127a2.75,2.75,0,1,1-5.4-1.09L84,54.32a2.75,2.75,0,0,1,1.53-1.95l20.65-9.64a2.74,2.74,0,0,1,1.16-.26m0-.5h0a3.23,3.23,0,0,0-1.37.31L85.36,51.91a3.26,3.26,0,0,0-1.81,2.3L69.09,125.8a3.25,3.25,0,0,0,2.54,3.83,3.25,3.25,0,0,0,3.83-2.54l14.13-70,19.16-8.94a3.25,3.25,0,0,0-1.38-6.2Z"/><g class="share-cls-6"><line class="share-cls-7" x1="77.52" y1="129.03" x2="64.09" y2="127.65"/><line class="share-cls-7" x1="79.73" y1="123.99" x2="66.3" y2="122.61"/><line class="share-cls-7" x1="81.94" y1="118.95" x2="68.52" y2="117.56"/><line class="share-cls-7" x1="84.15" y1="113.9" x2="70.73" y2="112.52"/><line class="share-cls-7" x1="86.37" y1="108.86" x2="72.94" y2="107.48"/><line class="share-cls-7" x1="88.58" y1="103.82" x2="75.16" y2="102.44"/><line class="share-cls-7" x1="89.11" y1="98.04" x2="75.69" y2="96.66"/><line class="share-cls-7" x1="89.64" y1="92.26" x2="76.22" y2="90.88"/><line class="share-cls-7" x1="90.18" y1="86.48" x2="76.75" y2="85.1"/><line class="share-cls-7" x1="90.71" y1="80.7" x2="77.28" y2="79.32"/><line class="share-cls-7" x1="91.24" y1="74.92" x2="77.82" y2="73.54"/><line class="share-cls-7" x1="91.77" y1="69.14" x2="78.35" y2="67.76"/><line class="share-cls-7" x1="92.3" y1="63.36" x2="78.88" y2="61.98"/><line class="share-cls-7" x1="92.84" y1="57.58" x2="79.41" y2="56.2"/><line class="share-cls-7" x1="85.33" y1="46.39" x2="91.52" y2="59.84"/><line class="share-cls-7" x1="90.64" y1="44.01" x2="96.84" y2="57.47"/><line class="share-cls-7" x1="95.96" y1="41.64" x2="102.16" y2="55.1"/><line class="share-cls-7" x1="101.28" y1="39.27" x2="107.47" y2="52.73"/><line class="share-cls-7" x1="106.6" y1="36.9" x2="112.79" y2="50.35"/><line class="share-cls-7" x1="111.91" y1="34.52" x2="118.11" y2="47.98"/></g></g></g></g></g></svg>
