<svg xmlns="http://www.w3.org/2000/svg" viewBox="0 0 247 414"><defs><style>.cls-1{fill:#c3b69e;}.cls-2{fill:#729b65;}.cls-3{fill:#edd673;}</style></defs><title>tree-o-meter</title><g id="trunk"><path class="cls-1" d="M88.86,181c1.72,1,2,1.33,3.07,2,2,1.29,4,2.57,6,3.81s2.1-.3,2.29-1.74a21.72,21.72,0,0,0-11.75-21.75c-3.13-1.5-6.62-.11-9.89-.28a32.68,32.68,0,0,1-8.43-1.34s6.47.31,7.44.15,4.75-.88,4.85-2.25a2.71,2.71,0,0,0-1.15-2c-8.12-5.45-16.56-10.24-26.33-12.1l0,0c-.51-.5-1.16-1.43-.36-2s2.61.27,3.38.45a39.14,39.14,0,0,1,8.26,2.77c6.36,3.1,12.74,6.15,19.93,9.61l-8.33-28.35,1-.34c1.54,4.31,3,8.65,4.64,12.92,2.2,5.74,4.51,11.44,6.83,17.14a8.2,8.2,0,0,0,1.56,2.53c2.3,2.42,5.4,6,7.88,5.38,2.67-.64,1-5.26,1-8.08a248.29,248.29,0,0,0-1.66-31.85c-.59-5.2,3.78-10.82,10.62-13.3a21.3,21.3,0,0,1,17,.87c5.94,2.83,8.88,7.52,9.27,14.17.3,5.23.81,10.44,1.35,15.64.26,2.53.49,5.08.8,7.6a21.72,21.72,0,0,0,.54,2.74c.12.49,1.07,2.82.82,3.17,6.08-8.7,11.73-16.78,17.38-24.85.57-.81,1.18-1.61,1.82-2.37a1.74,1.74,0,0,1,2.22-.63c1.72,1-.78,3.84-1.5,4.82-.29.4-3.44,5.54-3,5.58,4.47.42,7.7-2.85,12.82-4.17-4,4.51-8.13,6.28-12.31,8.11a17.7,17.7,0,0,0-8.36,7.6,26.59,26.59,0,0,0-2.16,5.15c-.6,1.92-.57,4.07-1.58,5.85s-2.5,2.83-3.25,4.59a19,19,0,0,0-1.33,7.54c0,2.17.48,4.28.58,6.43,0,1-.31,3.12,1,3.57,1.08.37,1.84-.77,2.52-1.42,1-.94,2-1.85,3-2.79a53.1,53.1,0,0,1,6.27-5.43c.8-.56,2.22-1.76,3.3-1.66.88.08,1.56,1.9,1.14,2.64-.32.55-1.37.84-1.91,1.17a22.49,22.49,0,0,0-2.37,1.67,42,42,0,0,0-6,6.21,14.94,14.94,0,0,1-2.39,2.58,7.48,7.48,0,0,0-1.72,1.85c-1.57,2.36-3.44,7.44-1.31,10,1.05,1.26,2.09.43,3.07-.13,6.49-3.72,13.35-6.94,19.33-11.35,5.25-3.88,6-10.84,8.24-16.63,1.36-3.48,2.29-7.12,4.53-10.44-.53,3.27-1,6.55-1.6,9.81s-1.33,6.73-2.19,11c5.4-2.27,8.94-5.5,12.71-8.37,1.1-.84,2.19-2.72,3.71-1s-.48,2.76-1.48,3.56c-5,4-9.94,8.16-15,12.14-2.54,2-5.12,4-7.74,5.89s-5.2,3.4-7.67,5.26a8.52,8.52,0,0,1-2,1.44c-16.17,6-14,19.31-12.85,32.2.14,1.65.38,3.3.43,5,.47,18.64.59,37.29,1.44,55.91,1.58,34.6,1.82,69.22,2,103.84,0,4.42-1.32,6.51-5.59,7.76-16.71,4.9-33.43,7.3-50.5,1.91-1.11-.35-2.23-.68-3.3-1.13-7.27-3.07-7.6-4.19-6.62-12.07,2-16.14,3.65-32.32,5.45-48.48h0c2.82-19.56,4.5-41.7,6.36-61.36,1.78-18.83,3.9-37.63,5.53-56.47.85-9.76,1.09-19.59,1.34-29.4.14-5.7-4.6-9.5-10.14-8.62a25.34,25.34,0,0,1-3.46.43c-3,.06-6,0-9.49,0,2-1.26,4.41-1.56,6.69-2,1.33-.26,4.24-.32,4.23-2.18,0-1.27-1.58-1.53-2.59-2.07-1.81-1-4.18-1-5.62-3C79.61,180.09,87.14,179.94,88.86,181Z"/></g><g id="leaves_copy" data-name="leaves copy"><path class="cls-2" d="M216,97.92c1.2,9.44-4.34,15.67-14.51,16.34C200.11,105.62,206.75,98.15,216,97.92Z"/><path class="cls-2" d="M93.86,196.32c-5.17,7-16.56,6.73-21.82-.11C77.82,189.58,87,189.55,93.86,196.32Z"/><path class="cls-2" d="M187.2,203.5c-9.37,2.74-16.79-2-18.66-11.62C177.51,189.6,184.18,193.66,187.2,203.5Z"/><path class="cls-2" d="M223.06,126.09c-7.71,6.7-14.71,6.43-22.27-.62C206.42,118.67,216.12,118.82,223.06,126.09Z"/><path class="cls-2" d="M190.29,149.69c4.39,8.87,1.12,17.11-7.85,20.51C178.42,162.16,181.42,154.1,190.29,149.69Z"/><path class="cls-2" d="M212.76,89c-9.16-.37-14.54-6.46-14.57-16.14C206.35,70.92,212.93,78,212.76,89Z"/><path class="cls-2" d="M13.57,140.55c6.56,7.32,5.87,15.11-1.67,22C5.77,156.3,6.36,147.29,13.57,140.55Z"/><path class="cls-2" d="M169.35,207.44c-4.94,8.23-13.81,9.83-21.77,4.16C152.55,204,160.69,202.37,169.35,207.44Z"/><path class="cls-2" d="M174.18,30.94c-10-.29-15.56-7.05-14.19-16.81C168.66,14.71,173.58,20.42,174.18,30.94Z"/><path class="cls-2" d="M188.63,28.41c8.91-.75,14.7,4.48,16.23,14.36C196.73,45.31,188.78,38.44,188.63,28.41Z"/><path class="cls-2" d="M217,50.64c4,9.42,1.95,16.48-5.82,21.22C205.35,65,208,55,217,50.64Z"/><path class="cls-2" d="M72.93,214.27a14.45,14.45,0,0,1,20.13-8.88C90.12,214.27,82.89,217.46,72.93,214.27Z"/><path class="cls-2" d="M199,102.18c-9.56-3.51-13-10.45-9.95-19.68C197.7,85,201.56,92.42,199,102.18Z"/><path class="cls-2" d="M180.82,183.25c9.44-3.41,17.25-.14,20.45,8.28C193.22,196,185.58,192.94,180.82,183.25Z"/><path class="cls-2" d="M164,173.87c-3.34-8.92-.51-16.19,7.76-20.46C177.63,160.32,172,172.19,164,173.87Z"/><path class="cls-2" d="M234,123.77c4.56,8.42,2.21,16.74-6,21C222.78,137.22,225.36,128.13,234,123.77Z"/><path class="cls-2" d="M48.82,202.35c7.4-6.43,15.67-6,22.17.86C64.86,210,56.27,209.72,48.82,202.35Z"/><path class="cls-2" d="M225.41,166.23c-8.41-5.37-10.2-12.47-5.63-21.39C227.69,148.42,230.26,157.69,225.41,166.23Z"/><path class="cls-2" d="M152.54,11c-2,9.14-8.6,13.64-17.49,12.18C134.62,14.76,142.94,8.81,152.54,11Z"/><path class="cls-2" d="M195.6,128.74c-.57,9.5-7.21,14.92-16.63,13.59C179,133.64,186.61,127.41,195.6,128.74Z"/><path class="cls-2" d="M38.95,176.32c7.85,6.24,9.19,13.69,4.15,21.55C34.91,193.51,33.06,184.38,38.95,176.32Z"/><path class="cls-2" d="M36.86,171.63c-6.7,6.68-18,3.87-21.88-2.9C22,162.82,31,164,36.86,171.63Z"/><path class="cls-2" d="M197,146.77c2.7-8.56,9.13-12,19.06-10.3C215.65,145.25,206.25,150.32,197,146.77Z"/><path class="cls-2" d="M172.31,82.43c-.36-8.84,6.06-15.2,15-14.82C188.11,76.58,180.9,83.73,172.31,82.43Z"/><path class="cls-2" d="M164.92,151.74c.42,7.82-9.51,15.13-17.93,11.53C148.83,154.73,155.72,150.2,164.92,151.74Z"/><path class="cls-2" d="M143.78,28.83c8.44-3.85,16.75,0,19.18,8.92C154.47,40.89,146.72,37.28,143.78,28.83Z"/><path class="cls-2" d="M186.58,107c-9.16-1.12-13.72-6.78-13.44-16.71C181.66,89.66,188.56,98.23,186.58,107Z"/><path class="cls-2" d="M217.79,77.4c9.48-1.55,17.13,4.35,17.31,13.07C225.85,91.9,220.19,87.73,217.79,77.4Z"/><path class="cls-2" d="M5.31,84.36c1.08-9.82,7.64-14.93,17-13.54C21.46,79.55,15.05,84.78,5.31,84.36Z"/><path class="cls-2" d="M182,28c5,8.18,3.05,16.6-4.58,21.24C171.8,41.77,173.55,33.13,182,28Z"/><path class="cls-2" d="M46.05,41.6c-4.2,7.81-12.49,10.22-20.6,6C29.23,39.34,37.65,36.89,46.05,41.6Z"/><path class="cls-2" d="M3.21,92.64c9.76-.8,15,3.8,16.21,13.86C10.74,107.72,4.41,102.42,3.21,92.64Z"/><path class="cls-2" d="M46.13,160.38c-8.29,4.65-15.84,2.25-20.56-6.56C33.71,149.53,42.55,152.35,46.13,160.38Z"/><path class="cls-2" d="M199.67,119.18c-7.77,7.49-16.87,4.76-21.83-1.33C183.56,111.76,192.79,112.21,199.67,119.18Z"/><path class="cls-2" d="M52.82,161.15c3.26-6.8,8.26-10.19,15.5-9.9,1.21,0,3.26.62,3.41,1.28a5.74,5.74,0,0,1-1.06,4C66.66,162.41,59.84,164.23,52.82,161.15Z"/><path class="cls-2" d="M144.08,138c-4.22-7.33-.77-15.63,7.73-19.32C156,125.59,152.77,134,144.08,138Z"/><path class="cls-2" d="M98.53,24.15c-9.5,2-16.86-2.69-17.66-11.26C89.86,11.1,96.55,15.38,98.53,24.15Z"/><path class="cls-2" d="M22.82,92.08c-2.58-8.88.58-14.69,9.74-18.51C36.49,80.43,31.86,89.43,22.82,92.08Z"/><path class="cls-2" d="M172.76,65.51c-9.32-3.62-13.26-11.45-9.87-19C171.67,48.77,175.29,55.56,172.76,65.51Z"/><path class="cls-2" d="M140.6,36.11c-10.48,1.86-15.76-.58-19.5-8.79C128.41,22.87,136.87,26.55,140.6,36.11Z"/><path class="cls-2" d="M38.38,120.63c1.94,8.71-1.62,15.08-9.85,18.06C24.34,131.57,29,122.79,38.38,120.63Z"/><path class="cls-2" d="M57.52,140c-6.7,6.53-14.72,5.86-21.25-1.54C43.66,133.09,50.17,133.48,57.52,140Z"/><path class="cls-2" d="M76,167.2c8.37-3.29,15.9-.27,19.43,7.8C88.3,179.67,78.88,175.89,76,167.2Z"/><path class="cls-2" d="M52.83,41c-5-6.19-2.46-16.72,5.36-20.55C63,27.48,60.65,36.59,52.83,41Z"/><path class="cls-2" d="M168.9,70.29c-2.5,7.1-12.71,11.34-19.57,7.28C152,69.55,160.21,66.36,168.9,70.29Z"/><path class="cls-2" d="M18.7,56.82c9-2.75,16.24,1.46,18.08,10.26C28.48,69.57,21.47,65.71,18.7,56.82Z"/><path class="cls-2" d="M65.26,102.92c-9,.47-14.4-5-14.6-14.3C59.37,88.81,64.56,93.78,65.26,102.92Z"/><path class="cls-2" d="M60.19,44.67c.4,8.93-4.18,14.91-12.36,16.5C45.08,53.58,50.07,46.74,60.19,44.67Z"/><path class="cls-2" d="M144.56,114.13c-5.29-4.75-5.76-13.88-1-18.67,1.93-2,3.39-1.34,4.59,1C150.81,101.77,149.56,108.74,144.56,114.13Z"/><path class="cls-2" d="M46.15,71.42c4.39,7.6,2.32,14.36-5.93,19.42C36,83.19,38.54,75,46.15,71.42Z"/><path class="cls-2" d="M5.32,129.58c-2.58-8.88.58-14.69,9.74-18.51C19,117.93,14.36,126.93,5.32,129.58Z"/><path class="cls-2" d="M90.87,122.23c7.05,5.48,8.36,12.66,3.92,20.2C87,139.61,85,129.89,90.87,122.23Z"/><path class="cls-2" d="M63.64,128.26c-7.75,4.53-15.08,2.17-19.53-6C51.93,118.42,58.82,120.45,63.64,128.26Z"/><path class="cls-2" d="M24.15,120.42c4.39,7.6,2.32,14.36-5.93,19.42C14,132.19,16.54,124,24.15,120.42Z"/><path class="cls-2" d="M112.53,39c-7.2,4-15.16,1.83-20.19-5.4A13.38,13.38,0,0,1,112.53,39Z"/><path class="cls-2" d="M168.71,94.08c-5.85,4.14-17.35,1.71-19.87-6.44C156.09,83.7,164.12,86.2,168.71,94.08Z"/><path class="cls-2" d="M61,131.6c9.34-.94,15.53,4,15.93,12.25C69,145.47,62.16,140.33,61,131.6Z"/><path class="cls-2" d="M141.37,79.08c-8.33-.4-13.87-7-12.8-15.16C135.69,63,143.57,72.74,141.37,79.08Z"/><path class="cls-2" d="M123.31,37.26c6.21,6.32,6.79,13.39,1.88,19.86C117,52.23,117.63,42.54,123.31,37.26Z"/><path class="cls-2" d="M70.38,113.15c-7.2,6.51-15.92,6.15-20.93-.85C56.32,106.24,64.26,106.57,70.38,113.15Z"/><path class="cls-2" d="M122.62,23.4c-3.48-9.06,0-17.07,8.33-19.22C134.12,12.77,131,20.06,122.62,23.4Z"/></g><g id="heart-lemons"><path class="cls-3" d="M46.28,104.69a6,6,0,0,0-2.46-6.79,6.09,6.09,0,0,0-6.7.61,4.46,4.46,0,0,0-1,1.05A4.46,4.46,0,0,0,36,98.08a6.07,6.07,0,0,0-4.51-5,6,6,0,0,0-6.45,3.31c-1.92,3.3-1.51,6-.71,9.39,1.1,4.64,2.5,9.21,3.84,13.77,4.09-2.42,8.2-4.79,12.2-7.48,2.9-1.94,5-3.65,5.83-7.38h0Z"/><path class="cls-3" d="M65.92,169.9a6,6,0,0,0-6.87-2.23,6.09,6.09,0,0,0-3.63,5.67,4.46,4.46,0,0,0,.19,1.47,4.46,4.46,0,0,0-1.2-.87,6.07,6.07,0,0,0-6.71.49,6,6,0,0,0-1.35,7.12c1.43,3.54,3.79,4.87,7,6.32,4.34,2,8.81,3.69,13.23,5.42.6-4.71,1.25-9.42,1.58-14.22.25-3.48.21-6.2-2.25-9.14h0Z"/><path class="cls-3" d="M243.28,108.36a6,6,0,0,0-2.46-6.79,6.09,6.09,0,0,0-6.7.61,4.46,4.46,0,0,0-1,1.05,4.46,4.46,0,0,0-.05-1.48,6.07,6.07,0,0,0-4.51-5,6,6,0,0,0-6.45,3.31c-1.92,3.3-1.51,6-.71,9.39,1.1,4.64,2.5,9.21,3.84,13.77,4.09-2.42,8.2-4.79,12.2-7.48,2.9-1.94,5-3.65,5.83-7.38h0Z"/><path class="cls-3" d="M216.62,157.69a6,6,0,0,0-5.23-5,6.09,6.09,0,0,0-5.72,3.54,4.46,4.46,0,0,0-.46,1.4,4.46,4.46,0,0,0-.71-1.3,6.07,6.07,0,0,0-6.27-2.46,6,6,0,0,0-4.29,5.84c-.24,3.81,1.32,6,3.56,8.72,3.06,3.66,6.35,7.13,9.59,10.6,2.57-4,5.2-8,7.57-12.15,1.72-3,2.86-5.51,1.92-9.21h0Z"/><path class="cls-3" d="M175.33,107.63a6,6,0,0,0-6-4,6.09,6.09,0,0,0-5,4.48,4.46,4.46,0,0,0-.21,1.46,4.46,4.46,0,0,0-.92-1.16,6.07,6.07,0,0,0-6.6-1.34,6,6,0,0,0-3.21,6.5c.42,3.8,2.34,5.71,5,8,3.65,3.08,7.49,5.92,11.28,8.77,1.84-4.38,3.74-8.73,5.35-13.28,1.17-3.29,1.87-5.92.29-9.4h0Z"/><path class="cls-3" d="M206.34,51.56a6,6,0,0,0-4.5-5.65,6.09,6.09,0,0,0-6.15,2.73A4.46,4.46,0,0,0,195,50a4.46,4.46,0,0,0-.52-1.38,6.07,6.07,0,0,0-5.87-3.29,6,6,0,0,0-5,5.2c-.76,3.74.48,6.15,2.34,9.12,2.53,4,5.32,7.93,8.05,11.81,3.1-3.61,6.23-7.17,9.16-11,2.12-2.77,3.59-5.06,3.16-8.86h0Z"/><path class="cls-3" d="M156.14,47.75a6,6,0,0,0-5.67-4.48,6.09,6.09,0,0,0-5.38,4,4.46,4.46,0,0,0-.33,1.44,4.46,4.46,0,0,0-.82-1.23,6.07,6.07,0,0,0-6.46-1.88,6,6,0,0,0-3.74,6.21c.1,3.82,1.86,5.88,4.34,8.36,3.38,3.37,7,6.52,10.51,9.68,2.2-4.21,4.45-8.39,6.43-12.79,1.44-3.18,2.35-5.74,1.07-9.35h0Z"/><path class="cls-3" d="M85.42,28a6,6,0,0,0-6-4,6.09,6.09,0,0,0-5.06,4.44,4.46,4.46,0,0,0-.22,1.46,4.46,4.46,0,0,0-.91-1.16,6.07,6.07,0,0,0-6.59-1.39,6,6,0,0,0-3.27,6.47c.39,3.8,2.29,5.73,4.95,8,3.62,3.11,7.44,6,11.21,8.87C81.42,46.32,83.35,42,85,37.45c1.2-3.27,1.92-5.9.37-9.4h0Z"/><path class="cls-2" d="M79.05,55.94c-4.2,7.81-12.49,10.22-20.6,6C62.23,53.67,70.65,51.23,79.05,55.94Z"/><path class="cls-2" d="M115.2,84.15c-9.5,2-16.86-2.69-17.66-11.26C106.52,71.1,113.22,75.38,115.2,84.15Z"/><path class="cls-2" d="M86.5,65.37c-5-6.19-2.46-16.72,5.36-20.55C96.69,51.82,94.31,60.92,86.5,65.37Z"/><path class="cls-2" d="M64.7,90.15c9-2.75,16.24,1.46,18.08,10.26C74.48,102.9,67.47,99,64.7,90.15Z"/><path class="cls-2" d="M80,125.76c-7.75,4.53-15.08,2.17-19.53-6C68.26,115.92,75.15,118,80,125.76Z"/><path class="cls-2" d="M93.86,69c.4,8.93-4.18,14.91-12.36,16.5C78.75,77.91,83.74,71.07,93.86,69Z"/><path class="cls-2" d="M173.82,131.76c4.39,7.6,2.32,14.36-5.93,19.42C163.69,143.53,166.21,135.29,173.82,131.76Z"/><path class="cls-2" d="M143.85,86.7c-4.8,6.67-12.9,8.16-20.55,3.79A13.38,13.38,0,0,1,143.85,86.7Z"/><path class="cls-3" d="M106.75,91.71a6,6,0,0,0-6-4A6.09,6.09,0,0,0,95.7,92.1a4.46,4.46,0,0,0-.22,1.46,4.46,4.46,0,0,0-.91-1.16A6.07,6.07,0,0,0,88,91a6,6,0,0,0-3.27,6.47c.39,3.8,2.29,5.73,4.95,8,3.62,3.11,7.44,6,11.21,8.87,1.88-4.36,3.82-8.7,5.46-13.23,1.2-3.27,1.92-5.9.37-9.4h0Z"/><path class="cls-2" d="M98.63,57.43c1.55-9.58,8.58-14.76,16.87-12.42C113.92,54,107.53,58.74,98.63,57.43Z"/><path class="cls-2" d="M127,77.42c-8.33-.4-13.87-7-12.8-15.16C121.35,61.38,129.24,71.08,127,77.42Z"/><path class="cls-2" d="M117.19,34.95c-8.84-4-12-12.13-7.6-19.52C117.89,19.3,120.77,26.7,117.19,34.95Z"/><path class="cls-2" d="M139.19,97c-2,8-9,12.35-17.7,11.11A13.38,13.38,0,0,1,139.19,97Z"/><path class="cls-2" d="M112.34,107.55c-4.47-8.61-1.92-17,6.12-20C122.58,95.7,120.26,103.3,112.34,107.55Z"/><path class="cls-2" d="M113.12,67.63c-6.65,5-15.11,3.54-19.54-3.45C98.48,58.95,110.75,61.35,113.12,67.63Z"/><path class="cls-2" d="M79,67.85c1.25,9.62-4,16.59-12.61,16.72C65.3,75.48,70.08,69.13,79,67.85Z"/><path class="cls-2" d="M93.08,115.37c-7.34,3.69-15.22,1.26-20-6.15A13.38,13.38,0,0,1,93.08,115.37Z"/><path class="cls-2" d="M60.85,87.62c-8.39-4.87-10.72-13.29-5.57-20.19C63.13,72.12,65.25,79.78,60.85,87.62Z"/></g></svg>