<svg id="Layer_1" data-name="Layer 1" xmlns="http://www.w3.org/2000/svg" viewBox="0 0 65.86 22.32"><defs><style>.cls-1{fill:#7d745e;}</style></defs><title>get-involvedfleuron</title><path class="cls-1" d="M48.58,2.06c10,0,17.28,5,17.28,10.37a5.21,5.21,0,0,1-5.18,5.28C59.09,17.71,58,17,58,16.8a.21.21,0,0,1,.19-.19,4.65,4.65,0,0,0,1.54.29,3.64,3.64,0,0,0,3.6-4c0-4.75-6.62-9.6-15.65-9.6-14,0-20.16,7-32.79,7C3.84,10.27,0,1.73,0,.38A.38.38,0,0,1,.38,0C.67,0,.82.29,1,.53,1.92,2.4,5.28,7,15.79,7,27,7,37.06,2.06,48.58,2.06ZM22.37,13a.82.82,0,1,1,.82-.82A.84.84,0,0,1,22.37,13Zm3.84-.62a1,1,0,1,1,1-1A1,1,0,0,1,26.21,12.34Zm4.66-.82a1.25,1.25,0,1,1,1.25-1.25A1.27,1.27,0,0,1,30.87,11.52Zm27.75,1.87a.33.33,0,0,1-.34.34c-.14,0-.24-.1-.43-.34C57.37,12.77,54.29,9,47,9c-7,0-11.14,2.5-11.14,6.62,0,3.17,2.26,4.8,5.38,4.8A6.67,6.67,0,0,0,46,18.19c.24-.24.29-.29.43-.29a.27.27,0,0,1,.24.29c0,.91-2.4,4.13-6.86,4.13-3.07,0-6.67-1.92-6.67-6.48,0-5.28,5.86-8.16,12.67-8.16C54.82,7.68,58.61,12.91,58.61,13.39Z"/></svg>