<?xml version="1.0" encoding="utf-8"?>
<!-- Generator: Adobe Illustrator 19.2.1, SVG Export Plug-In . SVG Version: 6.00 Build 0)  -->
<svg version="1.1" id="Layer_1" xmlns="http://www.w3.org/2000/svg" xmlns:xlink="http://www.w3.org/1999/xlink" x="0px" y="0px"
	 viewBox="0 0 24 24" style="enable-background:new 0 0 24 24;" xml:space="preserve">
<g>
	<path d="M18.9,10.6h-1.6c0.1,0.4,0.2,0.9,0.2,1.4c0,3.1-2.5,5.5-5.5,5.5c-3.1,0-5.5-2.5-5.5-5.5c0-0.5,0.1-0.9,0.2-1.4H5.1v7.6
		c0,0.4,0.3,0.7,0.7,0.7h12.5c0.4,0,0.7-0.3,0.7-0.7L18.9,10.6L18.9,10.6z M18.9,5.8c0-0.4-0.3-0.7-0.7-0.7h-2.1
		c-0.4,0-0.7,0.3-0.7,0.7v2.1c0,0.4,0.3,0.7,0.7,0.7h2.1c0.4,0,0.7-0.3,0.7-0.7L18.9,5.8L18.9,5.8z M12,8.5c-1.9,0-3.5,1.6-3.5,3.5
		c0,1.9,1.6,3.5,3.5,3.5s3.5-1.6,3.5-3.5C15.5,10.1,13.9,8.5,12,8.5 M18.9,21H5.1C3.9,21,3,20.1,3,18.9V5.1C3,3.9,3.9,3,5.1,3h13.8
		C20.1,3,21,3.9,21,5.1v13.8C21,20.1,20.1,21,18.9,21"/>
</g>
</svg>
