<?xml version="1.0" encoding="UTF-8" standalone="no"?>
<svg width="500px" height="500px" viewBox="0 0 500 500" version="1.1" xmlns="http://www.w3.org/2000/svg" xmlns:xlink="http://www.w3.org/1999/xlink">
    <!-- Generator: Sketch 3.6.1 (26313) - http://www.bohemiancoding.com/sketch -->
    <title>Shape</title>
    <desc>Created with Sketch.</desc>
    <defs></defs>
    <g id="Page-1" stroke="none" stroke-width="1" fill="none" fill-rule="evenodd">
        <path d="M107.142857,196.428571 C107.142857,87.9440614 195.086919,0 303.571429,0 C412.055939,0 500,87.9440614 500,196.428571 C500,304.913081 412.055939,392.857143 303.571429,392.857143 C267.660847,392.857143 234.000975,383.220719 205.036157,366.392414 L71.4285714,500 C31.9797816,500 0,468.020339 0,428.571429 L133.607586,294.963843 C116.779281,265.999025 107.142857,232.339153 107.142857,196.428571 L107.142857,196.428571 Z M428.571429,196.428571 C428.571429,127.392974 372.607026,71.4285714 303.571429,71.4285714 C234.535831,71.4285714 178.571429,127.392974 178.571429,196.428571 C178.571429,265.464169 234.535831,321.428571 303.571429,321.428571 C372.607026,321.428571 428.571429,265.464169 428.571429,196.428571 L428.571429,196.428571 Z" id="Shape" fill="#000000"></path>
    </g>
</svg>